<?xml version="1.0" encoding="UTF-8" standalone="no"?>
<svg
   xmlns:dc="http://purl.org/dc/elements/1.1/"
   xmlns:cc="http://creativecommons.org/ns#"
   xmlns:rdf="http://www.w3.org/1999/02/22-rdf-syntax-ns#"
   xmlns:svg="http://www.w3.org/2000/svg"
   xmlns="http://www.w3.org/2000/svg"
   xmlns:xlink="http://www.w3.org/1999/xlink"
   xmlns:sodipodi="http://sodipodi.sourceforge.net/DTD/sodipodi-0.dtd"
   xmlns:inkscape="http://www.inkscape.org/namespaces/inkscape"
   sodipodi:docname="statistics.svg"
   inkscape:version="1.0beta1 (32d4812, 2019-09-19)"
   id="svg8"
   version="1.1"
   viewBox="0 0 235.74374 188.13197"
   height="188.13197mm"
   width="235.74374mm">
  <defs
     id="defs2">
    <linearGradient
       id="9b3bd20d-94b1-4b89-8689-3658f931a37a"
       x1="213.62"
       y1="486"
       x2="213.62"
       gradientUnits="userSpaceOnUse">
      <stop
         offset="0"
         stop-color="gray"
         stop-opacity="0.25"
         id="stop833" />
      <stop
         offset="0.54"
         stop-color="gray"
         stop-opacity="0.12"
         id="stop835" />
      <stop
         offset="1"
         stop-color="gray"
         stop-opacity="0.1"
         id="stop837" />
    </linearGradient>
    <linearGradient
       id="3648b6f2-24b3-4612-9b51-2b94a6a7f037"
       x1="227.62"
       y1="373"
       x2="227.62"
       y2="362"
       xlink:href="#9b3bd20d-94b1-4b89-8689-3658f931a37a" />
    <linearGradient
       id="b464c917-b78b-4380-985f-dbae11a5e44a"
       x1="227.62"
       y1="429"
       x2="227.62"
       y2="418"
       xlink:href="#9b3bd20d-94b1-4b89-8689-3658f931a37a" />
    <linearGradient
       id="72466b91-2539-4c80-b1ac-c07906bc8925"
       x1="329.62"
       y1="429"
       x2="329.62"
       y2="418"
       xlink:href="#9b3bd20d-94b1-4b89-8689-3658f931a37a" />
    <linearGradient
       id="78890ed7-d917-4391-91b4-37ee3fc8ca06"
       x1="336.62"
       y1="83"
       x2="336.62"
       y2="72"
       xlink:href="#9b3bd20d-94b1-4b89-8689-3658f931a37a" />
    <linearGradient
       id="d0ac5340-3428-4a2e-9340-0c5bb4adc0ec"
       x1="336.62"
       y1="98"
       x2="336.62"
       y2="87"
       xlink:href="#9b3bd20d-94b1-4b89-8689-3658f931a37a" />
    <linearGradient
       id="7bf349c6-21a0-4377-b038-17309d0b4fe9"
       x1="336.62"
       y1="113"
       x2="336.62"
       y2="102"
       xlink:href="#9b3bd20d-94b1-4b89-8689-3658f931a37a" />
    <linearGradient
       id="310c22dd-2978-41dd-b208-5581767f53d7"
       x1="336.62"
       y1="128"
       x2="336.62"
       y2="117"
       xlink:href="#9b3bd20d-94b1-4b89-8689-3658f931a37a" />
    <linearGradient
       id="9f8eec2a-ad59-4d16-9789-23c241b0441e"
       x1="214.12"
       y1="332"
       x2="214.12"
       y2="182"
       xlink:href="#9b3bd20d-94b1-4b89-8689-3658f931a37a" />
    <linearGradient
       id="f597f65b-8391-4099-8606-ddd6c1074545"
       x1="383.89999"
       y1="435.29999"
       x2="383.89999"
       y2="283.29999"
       gradientTransform="translate(-5.78,0.18)"
       xlink:href="#9b3bd20d-94b1-4b89-8689-3658f931a37a" />
    <linearGradient
       id="536b70eb-a08e-4f57-b7a7-caae76ee659a"
       x1="442.89999"
       y1="321.29999"
       x2="442.89999"
       y2="307.29999"
       gradientTransform="translate(-10.11,-4.98)"
       xlink:href="#9b3bd20d-94b1-4b89-8689-3658f931a37a" />
    <linearGradient
       id="6a8945d3-e2ea-4790-bfb4-dc06924cb8b4"
       x1="484.89999"
       y1="317.29999"
       x2="484.89999"
       y2="303.29999"
       gradientTransform="translate(-10.64,-8.78)"
       xlink:href="#9b3bd20d-94b1-4b89-8689-3658f931a37a" />
    <linearGradient
       id="1fa4c350-6ac8-4471-a2c1-5350628064fb"
       x1="547.96002"
       y1="413.42001"
       x2="547.96002"
       y2="413.16"
       xlink:href="#9b3bd20d-94b1-4b89-8689-3658f931a37a" />
    <linearGradient
       id="4c1eb33a-694b-43df-a00c-843591e6cad6"
       x1="517.63"
       y1="581.28998"
       x2="517.63"
       y2="408.48001"
       xlink:href="#9b3bd20d-94b1-4b89-8689-3658f931a37a" />
    <linearGradient
       id="dca23823-ed36-4339-a791-14813e0bdcff"
       x1="191.31"
       y1="423.32999"
       x2="191.31"
       y2="423.01999"
       xlink:href="#9b3bd20d-94b1-4b89-8689-3658f931a37a" />
    <linearGradient
       id="88a18300-a7c9-44fe-be2f-c3664a6015d6"
       x1="228.23"
       y1="619.83002"
       x2="228.23"
       y2="417.35999"
       xlink:href="#9b3bd20d-94b1-4b89-8689-3658f931a37a" />
    <linearGradient
       id="9a3d7bb1-47c0-4ca8-a076-fba8f746a389"
       x1="692"
       y1="659.04999"
       x2="692"
       y2="163.05"
       xlink:href="#9b3bd20d-94b1-4b89-8689-3658f931a37a" />
    <linearGradient
       id="89aca64f-6823-4107-b0e5-363f57c50e19"
       x1="595.12"
       y1="395.67999"
       x2="595.12"
       y2="241.67999"
       xlink:href="#9b3bd20d-94b1-4b89-8689-3658f931a37a" />
    <linearGradient
       id="244838b0-6b94-4a4f-974c-f4ebcd2d6e43"
       x1="788.12"
       y1="472.67999"
       x2="788.12"
       y2="318.67999"
       xlink:href="#9b3bd20d-94b1-4b89-8689-3658f931a37a" />
    <linearGradient
       id="a95129aa-3a9b-452b-80f4-39c8b969ae6a"
       x1="696.12"
       y1="614.67999"
       x2="696.12"
       y2="508.67999"
       xlink:href="#9b3bd20d-94b1-4b89-8689-3658f931a37a" />
    <linearGradient
       id="09992bb0-0588-4d4c-95c8-1ad271d94435"
       x1="749.12"
       y1="475.14999"
       x2="749.12"
       y2="351.14999"
       xlink:href="#9b3bd20d-94b1-4b89-8689-3658f931a37a" />
    <linearGradient
       id="e976fbab-c7be-4f98-b33a-a56658b85843"
       x1="790.62"
       y1="362.67999"
       x2="790.62"
       y2="344.67999"
       xlink:href="#9b3bd20d-94b1-4b89-8689-3658f931a37a" />
    <linearGradient
       id="294b6eda-21ba-4cef-8333-d7c4aaac1d9e"
       x1="760.62"
       y1="699.67999"
       x2="760.62"
       y2="677.67999"
       xlink:href="#9b3bd20d-94b1-4b89-8689-3658f931a37a" />
    <linearGradient
       id="065b80c5-77d7-4835-9968-dbf0ab7011d1"
       x1="607.62"
       y1="687.67999"
       x2="607.62"
       y2="566.67999"
       xlink:href="#9b3bd20d-94b1-4b89-8689-3658f931a37a" />
    <linearGradient
       id="2a3369eb-9ffa-44ee-b4f3-0d72059a1e3a"
       x1="608.62"
       y1="648.67999"
       x2="608.62"
       y2="648.67999"
       xlink:href="#9b3bd20d-94b1-4b89-8689-3658f931a37a" />
    <linearGradient
       id="327d5fd3-480a-4895-a6c0-ce7eb7e65eff"
       x1="482.12"
       y1="645.67999"
       x2="482.12"
       y2="590.67999"
       xlink:href="#9b3bd20d-94b1-4b89-8689-3658f931a37a" />
    <linearGradient
       id="47ebed85-0f1a-4564-9c94-c36bbc13acdd"
       x1="459.62"
       y1="699.67999"
       x2="459.62"
       y2="677.67999"
       xlink:href="#9b3bd20d-94b1-4b89-8689-3658f931a37a" />
    <linearGradient
       id="2b699f83-9fbb-4b6d-8a24-a3f0d4476570"
       x1="486.35001"
       y1="708.78998"
       x2="600.65002"
       y2="708.78998"
       xlink:href="#9b3bd20d-94b1-4b89-8689-3658f931a37a" />
    <linearGradient
       x2="213.62"
       y1="486"
       x1="213.62"
       gradientUnits="userSpaceOnUse"
       id="linearGradient1603"
       xlink:href="#9b3bd20d-94b1-4b89-8689-3658f931a37a"
       inkscape:collect="always" />
  </defs>
  <sodipodi:namedview
     inkscape:window-maximized="0"
     inkscape:window-y="23"
     inkscape:window-x="0"
     inkscape:window-height="693"
     inkscape:window-width="1280"
     showgrid="false"
     inkscape:document-rotation="0"
     inkscape:current-layer="layer1-3"
     inkscape:document-units="mm"
     inkscape:cy="139.12128"
     inkscape:cx="423.64948"
     inkscape:zoom="0.47067709"
     inkscape:pageshadow="2"
     inkscape:pageopacity="0.0"
     borderopacity="1.0"
     bordercolor="#666666"
     pagecolor="#ffffff"
     id="base" />
  <metadata
     id="metadata5">
    <rdf:RDF>
      <cc:Work
         rdf:about="">
        <dc:format>image/svg+xml</dc:format>
        <dc:type
           rdf:resource="http://purl.org/dc/dcmitype/StillImage" />
        <dc:title></dc:title>
      </cc:Work>
    </rdf:RDF>
  </metadata>
  <g
     transform="translate(12.03854,-54.10068)"
     id="layer1"
     inkscape:groupmode="layer"
     inkscape:label="Warstwa 1">
    <g
       transform="matrix(0.26458333,0,0,0.26458333,-12.03854,54.10068)"
       id="g1512">
      <ellipse
         cx="370"
         cy="694.04999"
         rx="67"
         ry="17"
         fill="#f2f2f2"
         id="ellipse871" />
      <ellipse
         cx="375"
         cy="506.04999"
         rx="67"
         ry="17"
         fill="#f2f2f2"
         id="ellipse873" />
      <ellipse
         cx="67"
         cy="514.04999"
         rx="67"
         ry="17"
         fill="#f2f2f2"
         id="ellipse875" />
      <rect
         x="22.620001"
         y="4"
         width="383"
         height="14.5"
         fill="#f5f5f5"
         id="rect877" />
      <rect
         style="fill:url(#linearGradient1603)"
         y="0"
         x="15.62"
         width="396"
         height="486"
         fill="url(#9b3bd20d-94b1-4b89-8689-3658f931a37a)"
         id="rect879" />
      <rect
         x="22.620001"
         y="18.5"
         width="383"
         height="459.5"
         fill="#fff"
         id="rect881" />
      <circle
         cx="30.5"
         cy="11.5"
         r="3.5"
         fill="#ff5252"
         id="circle883" />
      <circle
         cx="40.119999"
         cy="11.5"
         r="3.5"
         fill="#ff0"
         id="circle885" />
      <circle
         cx="49.75"
         cy="11.5"
         r="3.5"
         fill="#69f0ae"
         id="circle887" />
      <g
         opacity="0.2"
         id="g891">
        <rect
           x="33.619999"
           y="36"
           width="149"
           height="9"
           fill="#38d39f"
           id="rect889" />
      </g>
      <rect
         x="139.62"
         y="73"
         width="149"
         height="9"
         fill="#f5f5f5"
         id="rect893" />
      <rect
         x="33.619999"
         y="363"
         width="149"
         height="9"
         fill="#38d39f"
         opacity="0.5"
         id="rect895" />
      <rect
         style="fill:url(#3648b6f2-24b3-4612-9b51-2b94a6a7f037)"
         x="202.62"
         y="362"
         width="50"
         height="11"
         fill="url(#3648b6f2-24b3-4612-9b51-2b94a6a7f037)"
         id="rect897" />
      <rect
         style="fill:url(#b464c917-b78b-4380-985f-dbae11a5e44a)"
         x="202.62"
         y="418"
         width="50"
         height="11"
         fill="url(#b464c917-b78b-4380-985f-dbae11a5e44a)"
         id="rect899" />
      <rect
         style="fill:url(#72466b91-2539-4c80-b1ac-c07906bc8925)"
         x="304.62"
         y="418"
         width="50"
         height="11"
         fill="url(#72466b91-2539-4c80-b1ac-c07906bc8925)"
         id="rect901" />
      <rect
         x="204.62"
         y="363"
         width="47"
         height="9"
         fill="#38d39f"
         id="rect903" />
      <rect
         x="204.62"
         y="419"
         width="47"
         height="9"
         fill="#38d39f"
         id="rect905" />
      <rect
         x="305.62"
         y="419"
         width="47"
         height="9"
         fill="#38d39f"
         id="rect907" />
      <rect
         x="33.619999"
         y="391"
         width="149"
         height="9"
         fill="#f5f5f5"
         id="rect909" />
      <rect
         x="204.62"
         y="391"
         width="149"
         height="9"
         fill="#38d39f"
         opacity="0.5"
         id="rect911" />
      <rect
         x="204.62"
         y="447"
         width="149"
         height="9"
         fill="#f5f5f5"
         id="rect913" />
      <rect
         x="33.619999"
         y="419"
         width="149"
         height="9"
         fill="#38d39f"
         opacity="0.5"
         id="rect915" />
      <rect
         x="33.619999"
         y="447"
         width="149"
         height="9"
         fill="#f5f5f5"
         id="rect917" />
      <rect
         x="139.62"
         y="88"
         width="84"
         height="9"
         fill="#f5f5f5"
         id="rect919" />
      <rect
         x="238.62"
         y="88"
         width="29"
         height="9"
         fill="#f5f5f5"
         id="rect921" />
      <rect
         x="139.62"
         y="118"
         width="84"
         height="9"
         fill="#f5f5f5"
         id="rect923" />
      <rect
         x="238.62"
         y="118"
         width="29"
         height="9"
         fill="#f5f5f5"
         id="rect925" />
      <rect
         x="139.62"
         y="103"
         width="149"
         height="9"
         fill="#f5f5f5"
         id="rect927" />
      <g
         opacity="0.2"
         id="g931">
        <rect
           x="243.62"
           y="36"
           width="149"
           height="9"
           fill="#38d39f"
           id="rect929" />
      </g>
      <rect
         style="fill:url(#78890ed7-d917-4391-91b4-37ee3fc8ca06)"
         x="327.62"
         y="72"
         width="18"
         height="11"
         fill="url(#78890ed7-d917-4391-91b4-37ee3fc8ca06)"
         id="rect933" />
      <rect
         style="fill:url(#d0ac5340-3428-4a2e-9340-0c5bb4adc0ec)"
         x="327.62"
         y="87"
         width="18"
         height="11"
         fill="url(#d0ac5340-3428-4a2e-9340-0c5bb4adc0ec)"
         id="rect935" />
      <rect
         style="fill:url(#7bf349c6-21a0-4377-b038-17309d0b4fe9)"
         x="327.62"
         y="102"
         width="18"
         height="11"
         fill="url(#7bf349c6-21a0-4377-b038-17309d0b4fe9)"
         id="rect937" />
      <rect
         x="328.62"
         y="73"
         width="16"
         height="9"
         fill="#ff5252"
         id="rect939" />
      <rect
         x="328.62"
         y="88"
         width="16"
         height="9"
         fill="#ff9800"
         id="rect941" />
      <rect
         x="328.62"
         y="103"
         width="16"
         height="9"
         fill="#69f0ae"
         id="rect943" />
      <rect
         style="fill:url(#310c22dd-2978-41dd-b208-5581767f53d7)"
         x="327.62"
         y="117"
         width="18"
         height="11"
         fill="url(#310c22dd-2978-41dd-b208-5581767f53d7)"
         id="rect945" />
      <rect
         x="328.62"
         y="118"
         width="16"
         height="9"
         fill="#38d39f"
         id="rect947" />
      <rect
         style="fill:url(#9f8eec2a-ad59-4d16-9789-23c241b0441e)"
         x="30.620001"
         y="182"
         width="367"
         height="150"
         fill="url(#9f8eec2a-ad59-4d16-9789-23c241b0441e)"
         id="rect949" />
      <rect
         x="33.619999"
         y="185"
         width="359"
         height="142"
         fill="#38d39f"
         opacity="0.5"
         id="rect951" />
      <polygon
         points="33.62,327 44.62,327 44.62,196 392.62,196 392.62,185 33.62,185 "
         fill="#fff"
         opacity="0.5"
         id="polygon953" />
      <rect
         style="fill:url(#f597f65b-8391-4099-8606-ddd6c1074545)"
         x="193.12"
         y="283.48001"
         width="370"
         height="152"
         transform="rotate(-5.2,-739.10719,2013.604)"
         fill="url(#f597f65b-8391-4099-8606-ddd6c1074545)"
         id="rect955" />
      <rect
         x="199.03"
         y="287.42999"
         width="359"
         height="142"
         transform="rotate(-5.2,-738.73186,2012.6281)"
         fill="#fff"
         id="rect957" />
      <path
         inkscape:connector-curvature="0"
         d="m 220,420.07 -6.2,-78.77 c 0,0 32,-34 96.6,-8.8 64.6,25.2 95.06,7.41 105.56,-9.61 10.5,-17.02 65,-36 82.66,-7.53 17.66,28.47 38.84,-3.54 38.84,-3.54 l 7.16,78.67 z"
         transform="translate(-154.5,-94.48)"
         fill="#38d39f"
         opacity="0.5"
         id="path959" />
      <line
         x1="98.029999"
         y1="229.66"
         x2="98.57"
         y2="235.64"
         fill="none"
         stroke="#38d39f"
         stroke-miterlimit="10"
         id="line961" />
      <line
         x1="99.620003"
         y1="247.10001"
         x2="105.36"
         y2="310.16"
         fill="none"
         stroke="#38d39f"
         stroke-miterlimit="10"
         stroke-dasharray="11.51 11.51"
         id="line963" />
      <line
         x1="105.88"
         y1="315.89001"
         x2="106.43"
         y2="321.85999"
         fill="none"
         stroke="#38d39f"
         stroke-miterlimit="10"
         id="line965" />
      <line
         x1="159.52"
         y1="239.42"
         x2="160.07001"
         y2="245.39"
         fill="none"
         stroke="#38d39f"
         stroke-miterlimit="10"
         id="line967" />
      <line
         x1="161.25"
         y1="258.39999"
         x2="165.39999"
         y2="303.91"
         fill="none"
         stroke="#38d39f"
         stroke-miterlimit="10"
         stroke-dasharray="13.06 13.06"
         id="line969" />
      <line
         x1="165.99001"
         y1="310.41"
         x2="166.53"
         y2="316.39001"
         fill="none"
         stroke="#38d39f"
         stroke-miterlimit="10"
         id="line971" />
      <line
         x1="222.25999"
         y1="250.10001"
         x2="222.86"
         y2="256.07001"
         fill="none"
         stroke="#38d39f"
         stroke-miterlimit="10"
         id="line973" />
      <line
         x1="223.83"
         y1="265.82001"
         x2="227.21001"
         y2="299.92001"
         fill="none"
         stroke="#38d39f"
         stroke-miterlimit="10"
         stroke-dasharray="9.79 9.79"
         id="line975" />
      <line
         x1="227.7"
         y1="304.79001"
         x2="228.28999"
         y2="310.76999"
         fill="none"
         stroke="#38d39f"
         stroke-miterlimit="10"
         id="line977" />
      <line
         x1="278.64999"
         y1="214.84"
         x2="279.19"
         y2="220.82001"
         fill="none"
         stroke="#38d39f"
         stroke-miterlimit="10"
         id="line979" />
      <line
         x1="280.20999"
         y1="232.05"
         x2="285.84"
         y2="293.84"
         fill="none"
         stroke="#38d39f"
         stroke-miterlimit="10"
         stroke-dasharray="11.28 11.28"
         id="line981" />
      <line
         x1="286.35001"
         y1="299.45001"
         x2="286.89999"
         y2="305.42999"
         fill="none"
         stroke="#38d39f"
         stroke-miterlimit="10"
         id="line983" />
      <line
         x1="319.35001"
         y1="206.59"
         x2="319.89001"
         y2="212.56"
         fill="none"
         stroke="#38d39f"
         stroke-miterlimit="10"
         id="line985" />
      <line
         x1="320.97"
         y1="224.44"
         x2="326.92001"
         y2="289.76999"
         fill="none"
         stroke="#38d39f"
         stroke-miterlimit="10"
         stroke-dasharray="11.93 11.93"
         id="line987" />
      <line
         x1="327.45999"
         y1="295.70999"
         x2="328.01001"
         y2="301.67999"
         fill="none"
         stroke="#38d39f"
         stroke-miterlimit="10"
         id="line989" />
      <circle
         cx="252.36"
         cy="323.73001"
         r="5"
         transform="rotate(-5.2,-864.92256,1977.8795)"
         fill="#ff9800"
         id="circle991" />
      <circle
         cx="313.56"
         cy="334.23001"
         r="5"
         transform="rotate(-5.2,-803.72188,1988.3821)"
         fill="#ff5252"
         id="circle993" />
      <circle
         cx="376.76001"
         cy="344.54001"
         r="5"
         transform="rotate(-5.2,-740.52425,1998.6444)"
         fill="#69f0ae"
         id="circle995" />
      <circle
         style="fill:url(#536b70eb-a08e-4f57-b7a7-caae76ee659a)"
         cx="432.79999"
         cy="309.31"
         r="7"
         transform="rotate(-5.2,-684.42063,1963.4573)"
         fill="url(#536b70eb-a08e-4f57-b7a7-caae76ee659a)"
         id="circle997" />
      <circle
         style="fill:url(#6a8945d3-e2ea-4790-bfb4-dc06924cb8b4)"
         cx="474.26001"
         cy="301.51999"
         r="7"
         transform="rotate(-5.2,-642.91014,1955.6327)"
         fill="url(#6a8945d3-e2ea-4790-bfb4-dc06924cb8b4)"
         id="circle999" />
      <circle
         cx="432.79999"
         cy="309.31"
         r="5"
         transform="rotate(-5.2,-684.42063,1963.4573)"
         fill="#38d39f"
         id="circle1001" />
      <circle
         cx="474.26001"
         cy="301.51999"
         r="5"
         transform="rotate(-5.2,-642.91014,1955.6327)"
         fill="#38d39f"
         id="circle1003" />
      <circle
         cx="537.64001"
         cy="313.82001"
         r="5"
         transform="rotate(-5.2,-579.47718,1968.002)"
         fill="#69f0ae"
         id="circle1005" />
      <g
         opacity="0.2"
         id="g1009">
        <path
           style="fill:url(#1fa4c350-6ac8-4471-a2c1-5350628064fb)"
           inkscape:connector-curvature="0"
           d="m 547.76,413.2 0.07,0.23 c 0.77,-0.43 -0.07,-0.23 -0.07,-0.23 z"
           transform="translate(-154.5,-94.48)"
           fill="url(#1fa4c350-6ac8-4471-a2c1-5350628064fb)"
           id="path1007" />
      </g>
      <g
         opacity="0.2"
         id="g1013">
        <path
           style="fill:url(#4c1eb33a-694b-43df-a00c-843591e6cad6)"
           inkscape:connector-curvature="0"
           d="m 539.48,581.18 16.28,-2.63 -2.24,-10 v 0 -0.14 h -0.06 l -11.54,-53 v -38.65 a 14.26,14.26 0 0 0 -0.08,-1.47 c 17.24,-22.86 7,-58.73 6,-61.86 -0.18,0.09 -0.45,0.21 -0.83,0.36 a 21.06,21.06 0 0 0 -0.79,-4.13 c 0,0 -5,-3.18 -7.73,0.91 -2.38,3.57 -0.61,5.75 -0.12,6.26 l -0.34,0.11 a 11.52,11.52 0 0 1 1.58,3.94 8.65,8.65 0 0 0 -0.54,-1 c -0.63,-0.11 -1,-0.21 -1,-0.21 l -0.12,-0.11 -0.34,0.11 c 1.73,2.53 2.34,7 2.26,12.3 a 17.36,17.36 0 0 0 -2,-2.31 17.65,17.65 0 0 0 -11.7,-4.88 h -0.83 q -0.68,0 -1.36,0.09 h -0.34 l -0.57,0.08 -0.65,0.12 -0.47,0.1 -0.81,0.22 -0.3,0.09 c -0.34,0.11 -0.67,0.22 -1,0.35 a 17.24,17.24 0 0 1 -3.43,1.24 c -0.16,0 -0.32,0 -0.49,0.05 v 0 a 5.72,5.72 0 0 1 -3.75,-1.07 l -0.36,-0.28 a 5.29,5.29 0 0 1 -0.39,-0.37 2.54,2.54 0 0 0 -0.17,1.09 3.35,3.35 0 0 0 1.17,2.27 3.17,3.17 0 0 0 0.62,0.42 2.68,2.68 0 0 0 1.06,0.3 h 0.38 -0.09 c -0.23,0.11 -0.46,0.21 -0.7,0.3 h -0.05 c -0.26,0.09 -0.51,0.17 -0.78,0.24 v 0 a 8.68,8.68 0 0 1 -4,0.06 v 0 l -0.43,-0.1 c -0.21,-0.06 -0.43,-0.12 -0.63,-0.19 a 4.8,4.8 0 0 0 0.22,0.44 l 0.08,0.13 0.18,0.28 0.11,0.14 0.2,0.25 0.12,0.13 0.25,0.25 0.1,0.09 0.37,0.31 0.13,0.09 0.27,0.19 0.18,0.11 0.24,0.14 0.2,0.1 0.25,0.11 0.21,0.09 0.28,0.1 0.35,0.1 0.26,0.07 h 0.25 0.23 0.26 1 a 5,5 0 0 0 1.5,-0.37 l -0.92,0.38 v 0 l -0.46,0.16 -0.47,0.17 -0.47,0.14 -0.48,0.14 -0.47,0.12 -0.5,0.12 -0.46,0.09 -0.53,0.09 -0.44,0.07 -0.57,0.07 h -0.41 -0.65 -0.34 -1 a 4.21,4.21 0 0 1 1.51,0.8 4,4 0 0 0 0.93,0.5 3.59,3.59 0 0 0 0.45,0.1 h 0.13 0.32 1.35 0.44 a 6.54,6.54 0 0 1 2.59,0.83 4.65,4.65 0 0 1 1.11,1 c -0.14,0.23 -0.28,0.45 -0.4,0.69 -0.12,0.24 -0.21,0.4 -0.31,0.61 q -0.3,0.62 -0.53,1.27 a 14.08,14.08 0 0 0 -0.86,4.85 c 0,0.31 0,0.61 0,0.91 0,0.08 0,0.17 0,0.25 q 0,0.36 0.08,0.72 v 0.19 q 0.06,0.44 0.16,0.87 v 0.17 q 0.08,0.36 0.18,0.71 l 0.06,0.21 a 14,14 0 0 0 0.61,1.66 l 0.07,0.16 q 0.17,0.37 0.35,0.72 v 0.07 q 0.22,0.4 0.46,0.79 v 0.06 q 0.22,0.36 0.47,0.7 l 0.06,0.08 a 14.17,14.17 0 0 0 1.17,1.41 v 0 a 14.14,14.14 0 0 0 3.77,2.83 6.3,6.3 0 0 0 -0.11,0.65 v 0 a 6.36,6.36 0 0 0 0,0.68 v 5.28 q -0.45,0.24 -0.88,0.51 c -12.53,-5.69 -31.19,-46 -31.19,-46 h -0.45 c 1.82,-1.36 0,-7.28 0,-7.28 a 8.54,8.54 0 0 0 -3.5,-1.16 h -1 -0.18 -0.13 -0.18 -0.12 l -0.2,0.06 H 483 l -0.3,0.11 v 0 l -0.28,0.13 -0.1,0.05 -0.19,0.11 -0.13,0.61 -0.18,0.12 -0.11,0.09 -0.17,0.14 -0.11,0.1 -0.17,0.16 -0.1,0.11 -0.17,0.2 -0.08,0.1 -0.25,0.34 c -2.73,4.09 0,6.37 0,6.37 a 40.74,40.74 0 0 0 -0.25,4.75 c -0.2,29.46 31.33,52.29 32.94,53.43 -0.71,1.84 -6.57,18.14 0.07,38.49 a 0.65,0.65 0 0 0 0.08,0.14 59.08,59.08 0 0 0 -17.72,55.88 l 0.13,0.61 h 0.29 a 4,4 0 0 1 -0.11,0.4 4.59,4.59 0 0 1 -0.29,0.7 5.43,5.43 0 0 1 -0.73,1.07 v 0 c -0.31,0.36 -0.67,0.72 -1.05,1.09 l -0.4,0.38 c -1.59,1.52 -3.2,3 -2,3.6 h 17.21 v -7.51 h 0.3 c 0,0 -0.12,-0.23 -0.3,-0.68 V 571 h -0.06 c -0.9,-2.32 -3,-9.5 0.36,-20.56 4.09,-13.65 20,-20.47 20,-20.47 l 0.29,1 h -0.06 l 12.48,41 c 0,0.16 0,0.32 -0.05,0.49 a 6.67,6.67 0 0 1 -0.27,1.14 7.25,7.25 0 0 1 -0.34,0.84 c -0.77,1.59 -2.1,3.46 -2.68,4.86 a 4.71,4.71 0 0 0 -0.21,0.59 1.82,1.82 0 0 0 -0.07,0.7 0.81,0.81 0 0 0 0.53,0.67 v 0 h 0.23 l 0.48,-0.08 z m -4.82,-116.73 q -0.47,-0.26 -1,-0.49 V 459 a 6.32,6.32 0 0 0 -0.11,-1.13 14.11,14.11 0 0 0 3,-1.93 c -0.6,3.06 -1.27,5.99 -1.88,8.51 z"
           transform="translate(-154.5,-94.48)"
           fill="url(#4c1eb33a-694b-43df-a00c-843591e6cad6)"
           id="path1011" />
      </g>
      <path
         inkscape:connector-curvature="0"
         d="m 480.38,423.09 c 0,0 -3,-2.52 0,-7.06 3,-4.54 8.57,-1 8.57,-1 0,0 2,6.55 0,8.06 -2,1.51 -8.57,0 -8.57,0 z"
         transform="translate(-154.5,-94.48)"
         fill="#ca7070"
         id="path1015" />
      <path
         inkscape:connector-curvature="0"
         id="cbb1ca8a-3a06-4d8d-9881-c3637d2b9b50"
         data-name="&lt;Path&gt;"
         d="m 511.54,591.75 h -13.89 a 4.56,4.56 0 0 1 -1.31,3.57 c -1.87,2.16 -5.63,4.77 -3.86,5.66 h 19.06 z"
         transform="translate(-154.5,-94.48)"
         fill="#00695c" />
      <path
         inkscape:connector-curvature="0"
         d="m 497.35,595.32 a 4.56,4.56 0 0 0 1.31,-3.57 h -1 a 4.56,4.56 0 0 1 -1.31,3.57 c -1.87,2.16 -5.63,4.77 -3.86,5.66 h 1 c -1.77,-0.89 1.99,-3.49 3.86,-5.66 z"
         transform="translate(-154.5,-94.48)"
         fill="#fff"
         opacity="0.2"
         id="path1018" />
      <path
         inkscape:connector-curvature="0"
         id="ec846da8-b8c9-4838-98ee-b96510078eab"
         data-name="&lt;Path&gt;"
         d="M 561,588.89 548,591 a 6.62,6.62 0 0 1 -0.59,4.58 c -1.42,3 -4.61,6.74 -2.69,7.55 l 18.82,-3 z"
         transform="translate(-154.5,-94.48)"
         fill="#00695c" />
      <path
         inkscape:connector-curvature="0"
         d="m 554.66,416.94 c 0,0 14.87,46.91 -10.07,72.88 l -7.2,-5.51 c 0,0 14.74,-51.2 6.49,-63.22 14.56,-4.85 10.78,-4.15 10.78,-4.15 z"
         transform="translate(-154.5,-94.48)"
         fill="#00695c"
         id="path1021" />
      <path
         inkscape:connector-curvature="0"
         d="m 544.38,421.08 c 0,0 -3,-2.52 0,-7.06 3,-4.54 8.57,-1 8.57,-1 0,0 2,6.55 0,8.06 -2,1.51 -8.57,0 -8.57,0 z"
         transform="translate(-154.5,-94.48)"
         fill="#ca7070"
         id="path1023" />
      <path
         inkscape:connector-curvature="0"
         d="M 548.41,595.59 A 6.62,6.62 0 0 0 549,591 l 12,-2 v -0.16 L 548,591 a 6.62,6.62 0 0 1 -0.59,4.58 c -1.42,3 -4.61,6.74 -2.69,7.55 l 0.79,-0.13 c -1.43,-1 1.54,-4.59 2.9,-7.41 z"
         transform="translate(-154.5,-94.48)"
         fill="#fff"
         opacity="0.2"
         id="path1025" />
      <rect
         x="370.48001"
         y="366.16"
         width="14.11"
         height="20.91"
         rx="7.0599999"
         ry="7.0599999"
         fill="#ca7070"
         id="rect1027" />
      <path
         inkscape:connector-curvature="0"
         d="m 538.4,487.33 c 0,0 14.56,-50.57 6.63,-63 -0.7,-0.13 -1.15,-0.23 -1.15,-0.23 l -0.13,-0.12 -0.37,0.12 c 8.25,12 -6.49,63.22 -6.49,63.22 l 7.2,5.51 0.63,-0.68 z"
         transform="translate(-154.5,-94.48)"
         fill="#fff"
         opacity="0.2"
         id="path1029" />
      <circle
         cx="377.79001"
         cy="357.85001"
         r="15.62"
         fill="#ca7070"
         id="circle1031" />
      <path
         inkscape:connector-curvature="0"
         d="m 526.74,474.5 v -6.8 a 7,7 0 0 1 0.16,-1.48 15.62,15.62 0 0 1 6.26,-29.49 h -0.88 a 15.62,15.62 0 0 0 -7.15,29.51 7,7 0 0 0 -0.16,1.48 v 6.8 a 7,7 0 0 0 7.94,7 7.08,7.08 0 0 1 -6.17,-7.02 z"
         transform="translate(-154.5,-94.48)"
         fill="#fff"
         opacity="0.2"
         id="path1033" />
      <path
         inkscape:connector-curvature="0"
         d="m 548.16,530.18 c 0,0 -30.13,3.4 -31.24,0 -7.81,-23.94 0,-42.83 0,-42.83 a 15.62,15.62 0 0 1 15.62,-15.62 v 0 a 15.62,15.62 0 0 1 15.62,15.62 z"
         transform="translate(-154.5,-94.48)"
         fill="#00695c"
         id="path1035" />
      <path
         inkscape:connector-curvature="0"
         d="m 548.16,530.18 13.61,62.49 h -13.61 l -14.11,-46.36 c 0,0 -17.64,7.56 -22.17,22.68 -4.53,15.12 0,23.68 0,23.68 h -14.62 l -0.15,-0.68 a 65,65 0 0 1 19.8,-61.81 v 0"
         transform="translate(-154.5,-94.48)"
         fill="#263238"
         id="path1037" />
      <path
         inkscape:connector-curvature="0"
         d="m 518.68,530.18 c -7.81,-23.94 0,-42.83 0,-42.83 a 15.62,15.62 0 0 1 14.61,-15.59 c -0.33,0 -0.67,0 -1,0 v 0 a 15.62,15.62 0 0 0 -15.62,15.62 c 0,0 -7.81,18.9 0,42.83 0.4,1.22 4.52,1.56 9.64,1.51 -4.16,-0.09 -7.31,-0.49 -7.63,-1.54 z"
         transform="translate(-154.5,-94.48)"
         fill="#fff"
         opacity="0.2"
         id="path1039" />
      <path
         inkscape:connector-curvature="0"
         d="m 516.67,487.09 c 0,0 -40.31,-28.22 -36.28,-64 h 9.07 c 0,0 21.66,46.91 35.54,51.41 13.88,4.5 -8.33,12.59 -8.33,12.59 z"
         transform="translate(-154.5,-94.48)"
         fill="#00695c"
         id="path1041" />
      <g
         opacity="0.2"
         id="g1047">
        <path
           inkscape:connector-curvature="0"
           d="m 534.31,547.41 13.85,45.51 h 2 l -14.11,-46.36 c 0,0 -0.65,0.28 -1.74,0.85 z"
           transform="translate(-154.5,-94.48)"
           fill="#fff"
           id="path1043" />
        <path
           inkscape:connector-curvature="0"
           d="m 518.93,530.43 h -2 a 65,65 0 0 0 -19.8,61.81 l 0.15,0.68 h 2 l -0.15,-0.68 a 65,65 0 0 1 19.8,-61.81 z"
           transform="translate(-154.5,-94.48)"
           fill="#fff"
           id="path1045" />
      </g>
      <path
         inkscape:connector-curvature="0"
         d="m 481.9,423.6 h -1.51 c -4,35.78 36.28,64 36.28,64 l 1,-0.38 C 513,483.77 478.13,457 481.9,423.6 Z"
         transform="translate(-154.5,-94.48)"
         fill="#fff"
         opacity="0.2"
         id="path1049" />
      <path
         inkscape:connector-curvature="0"
         d="m 519.83,445.35 a 25.85,25.85 0 0 1 1.82,6.29 c 1,4.38 3.26,8.75 7.15,11 a 15.87,15.87 0 0 0 7,1.91 c 3.72,0.23 7.75,-0.49 10.38,-3.13 a 12.86,12.86 0 0 0 3.17,-6.39 21.63,21.63 0 0 0 -5.69,-19.88 19.19,19.19 0 0 0 -20,-4.19 19.1,19.1 0 0 1 -3.79,1.38 6.31,6.31 0 0 1 -5.53,-1.84 3.49,3.49 0 0 0 3.37,4.52 9.73,9.73 0 0 1 -7.46,0.4 6.33,6.33 0 0 0 8,3.19 21.32,21.32 0 0 1 -9,1.84 c 0.65,0 1.92,1.2 2.71,1.44 a 17.18,17.18 0 0 0 3,0.21 5.82,5.82 0 0 1 4.87,3.25 z"
         transform="translate(-154.5,-94.48)"
         fill="#263238"
         id="path1051" />
      <g
         opacity="0.2"
         id="g1063">
        <path
           inkscape:connector-curvature="0"
           d="m 517.75,435 a 9.63,9.63 0 0 1 -3.7,0.95 9.7,9.7 0 0 0 4.71,-0.95 3.53,3.53 0 0 1 -3.54,-3.81 5.94,5.94 0 0 1 -0.84,-0.71 3.49,3.49 0 0 0 3.37,4.52 z"
           transform="translate(-154.5,-94.48)"
           fill="#fff"
           id="path1053" />
        <path
           inkscape:connector-curvature="0"
           d="m 520.91,432.35 a 19.1,19.1 0 0 0 3.79,-1.38 17.38,17.38 0 0 1 6,-1.21 17.56,17.56 0 0 0 -7,1.21 19.1,19.1 0 0 1 -3.79,1.38 c -0.18,0 -0.36,0 -0.54,0.06 a 6,6 0 0 0 1.54,-0.06 z"
           transform="translate(-154.5,-94.48)"
           fill="#fff"
           id="path1055" />
        <path
           inkscape:connector-curvature="0"
           d="m 512.92,441.9 c -0.79,-0.23 -2.06,-1.42 -2.71,-1.44 a 21.32,21.32 0 0 0 9,-1.84 5.58,5.58 0 0 1 -2,0.42 21.33,21.33 0 0 1 -8,1.42 c 0.65,0 1.92,1.2 2.71,1.44 a 6.71,6.71 0 0 0 2.1,0.17 4.38,4.38 0 0 1 -1.1,-0.17 z"
           transform="translate(-154.5,-94.48)"
           fill="#fff"
           id="path1057" />
        <path
           inkscape:connector-curvature="0"
           d="m 536.83,464.56 a 15.87,15.87 0 0 1 -7,-1.91 c -3.89,-2.27 -6.11,-6.64 -7.15,-11 a 25.85,25.85 0 0 0 -1.82,-6.29 5.82,5.82 0 0 0 -4.93,-3.23 10.07,10.07 0 0 0 -1.5,0 h 0.49 a 5.82,5.82 0 0 1 4.93,3.23 25.85,25.85 0 0 1 1.82,6.29 c 1,4.38 3.26,8.75 7.15,11 a 15.87,15.87 0 0 0 7,1.91 c 0.58,0 1.16,0 1.75,0 z"
           transform="translate(-154.5,-94.48)"
           fill="#fff"
           id="path1059" />
        <path
           inkscape:connector-curvature="0"
           d="m 516.58,439 a 6.38,6.38 0 0 1 -5.12,-3.27 9.32,9.32 0 0 1 -1.17,-0.33 6.38,6.38 0 0 0 6.29,3.6 z"
           transform="translate(-154.5,-94.48)"
           fill="#fff"
           id="path1061" />
      </g>
      <path
         inkscape:connector-curvature="0"
         d="m 481.39,423.09 c 0,0 -3,-2.52 0,-7.06 a 4.83,4.83 0 0 1 3.74,-2.29 4.9,4.9 0 0 0 -4.74,2.29 c -3,4.54 0,7.06 0,7.06 a 27.32,27.32 0 0 0 5.93,0.66 29.83,29.83 0 0 1 -4.93,-0.66 z"
         transform="translate(-154.5,-94.48)"
         fill="#fff"
         opacity="0.2"
         id="path1065" />
      <g
         opacity="0.2"
         id="g1069">
        <path
           style="fill:url(#dca23823-ed36-4339-a791-14813e0bdcff)"
           inkscape:connector-curvature="0"
           d="m 191.47,423.33 0.08,-0.27 c 0,0 -1.02,-0.2 -0.08,0.27 z"
           transform="translate(-154.5,-94.48)"
           fill="url(#dca23823-ed36-4339-a791-14813e0bdcff)"
           id="path1067" />
      </g>
      <g
         opacity="0.2"
         id="g1073">
        <path
           style="fill:url(#88a18300-a7c9-44fe-be2f-c3664a6015d6)"
           inkscape:connector-curvature="0"
           d="m 285.7,440.09 a 6.59,6.59 0 0 0 -0.36,-0.93 c 0,-0.1 -0.1,-0.18 -0.15,-0.27 a 5.61,5.61 0 0 0 -0.3,-0.52 l -0.2,-0.26 a 5.06,5.06 0 0 0 -0.33,-0.39 l -0.23,-0.23 c -0.12,-0.11 -0.24,-0.21 -0.36,-0.3 l -0.25,-0.18 -0.4,-0.24 -0.25,-0.13 -0.45,-0.19 -0.23,-0.09 q -0.32,-0.11 -0.65,-0.18 v 0 a 10.33,10.33 0 0 0 -4.39,0.12 c 0,0 -4.19,6.18 -2.58,8.4 l -0.53,-0.16 c 0,0 -31.13,34.74 -48.69,41.19 q -0.67,-0.46 -1.39,-0.86 v -6.5 a 7.67,7.67 0 0 0 0,-0.82 v 0 a 7.6,7.6 0 0 0 -0.13,-0.77 l 0.13,-0.07 0.52,-0.29 0.75,-0.46 0.48,-0.31 q 0.54,-0.37 1,-0.78 l 0.39,-0.34 c 0.24,-0.2 0.47,-0.41 0.69,-0.63 l 0.4,-0.39 q 0.42,-0.43 0.8,-0.88 l 0.28,-0.34 q 0.36,-0.45 0.69,-0.92 l 0.28,-0.42 q 0.3,-0.46 0.57,-0.94 l 0.18,-0.31 c 0.22,-0.41 0.43,-0.84 0.61,-1.28 l 0.16,-0.39 q 0.21,-0.53 0.39,-1.07 c 0,-0.13 0.09,-0.25 0.12,-0.38 0.14,-0.47 0.27,-0.94 0.37,-1.43 0,-0.1 0,-0.19 0.05,-0.29 q 0.12,-0.61 0.19,-1.24 c 0,-0.14 0,-0.28 0,-0.42 0,-0.51 0.08,-1 0.08,-1.55 a 17,17 0 0 0 -3.78,-10.69 c 1.33,-2.08 2.2,-3.31 2.2,-3.31 -0.8,-0.55 -1.59,-1.05 -2.37,-1.54 l -0.76,-0.45 c -0.52,-0.31 -1,-0.62 -1.56,-0.9 l -0.87,-0.46 c -0.47,-0.25 -0.93,-0.49 -1.39,-0.71 l -0.89,-0.41 -1.33,-0.58 -0.87,-0.35 c -0.44,-0.17 -0.88,-0.33 -1.31,-0.48 l -0.82,-0.28 c -0.45,-0.14 -0.9,-0.27 -1.34,-0.39 l -0.73,-0.2 c -0.5,-0.12 -1,-0.22 -1.49,-0.32 l -0.53,-0.11 c -0.67,-0.12 -1.33,-0.21 -2,-0.27 v 0 a 23.71,23.71 0 0 0 -12,1.84 c 0.2,-4.78 1,-8.72 2.68,-11.16 l -0.41,-0.14 -0.14,0.14 c 0,0 -0.49,0.11 -1.26,0.25 a 10.44,10.44 0 0 0 -0.65,1.21 13.91,13.91 0 0 1 1.91,-4.76 l -0.41,-0.14 c 0.59,-0.61 2.73,-3.24 -0.14,-7.55 -3.3,-4.94 -9.34,-1.1 -9.34,-1.1 a 25.56,25.56 0 0 0 -0.94,5 c -0.46,-0.19 -0.79,-0.33 -1,-0.44 a 124.5,124.5 0 0 0 -4.69,31.36 c -10.89,15.46 -15.39,38.28 -16.27,43.2 v 0 l -0.07,0.39 v 0 c -0.06,0.36 -0.09,0.55 -0.09,0.55 l 28.31,0.66 c 0,0.1 0,0.19 0,0.29 v 44.83 L 178,588.22 c 0,0 7.84,0.25 19.64,1.76 l -3.26,23.31 v 0 l -1.09,6.54 h 19.62 c 2.18,-4.36 -8.72,-6.54 -8.72,-6.54 h -0.24 l 4.25,-21.75 q 2.82,0.47 5.8,1 a 56.81,56.81 0 0 0 8.83,1 v 0 a 46.94,46.94 0 0 0 7.35,-0.32 c 1.44,11.79 -0.45,18.83 -0.81,20 h -0.11 l -1.09,6.54 h 19.62 c 1.9,-3.8 -6.14,-5.95 -8.23,-6.43 l 0.09,-0.64 a 109.41,109.41 0 0 0 0.77,-22.2 26.87,26.87 0 0 0 7,-4.17 v 0 l 0.27,-0.24 v 0 l 0.08,-0.08 -14.61,-41 c 2.73,-11.6 -6.77,-23.78 -1.7,-29.87 5.07,-6.09 2,-13.86 1.4,-15.19 13.72,-6 41.45,-21 49.23,-47 a 49.17,49.17 0 0 0 1.39,-5.57 c 0,0 3.92,-1.59 2.22,-7.28 z"
           transform="translate(-154.5,-94.48)"
           fill="url(#88a18300-a7c9-44fe-be2f-c3664a6015d6)"
           id="path1071" />
      </g>
      <path
         inkscape:connector-curvature="0"
         d="m 194.58,430.94 c 0,0 -14.87,46.91 10.07,72.88 l 7.2,-5.51 c 0,0 -14.74,-51.2 -6.49,-63.22 -14.56,-4.85 -10.78,-4.15 -10.78,-4.15 z"
         transform="translate(-154.5,-94.48)"
         fill="#ff5252"
         id="path1075" />
      <path
         inkscape:connector-curvature="0"
         d="m 204.86,435.08 c 0,0 3,-2.52 0,-7.06 -3,-4.54 -8.57,-1 -8.57,-1 0,0 -2,6.55 0,8.06 2,1.51 8.57,0 8.57,0 z"
         transform="translate(-154.5,-94.48)"
         fill="#f6b9ad"
         id="path1077" />
      <rect
         x="210.14999"
         y="474.64001"
         width="14.11"
         height="20.91"
         rx="7.0599999"
         ry="7.0599999"
         transform="rotate(180,139.955,437.855)"
         fill="#f6b9ad"
         id="rect1079" />
      <path
         inkscape:connector-curvature="0"
         d="m 210.84,501.33 c 0,0 -14.56,-50.57 -6.63,-63 0.7,-0.13 1.15,-0.23 1.15,-0.23 l 0.13,-0.12 0.37,0.12 c -8.25,12 6.49,63.22 6.49,63.22 l -7.2,5.51 -0.63,-0.68 z"
         transform="translate(-154.5,-94.48)"
         fill="#fff"
         opacity="0.2"
         id="path1081" />
      <circle
         cx="62.450001"
         cy="371.85001"
         r="15.62"
         fill="#f6b9ad"
         id="circle1083" />
      <path
         inkscape:connector-curvature="0"
         d="m 222.5,488.5 v -6.8 a 7,7 0 0 0 -0.16,-1.48 15.62,15.62 0 0 0 -6.26,-29.49 h 0.88 a 15.62,15.62 0 0 1 7.15,29.51 7,7 0 0 1 0.16,1.48 v 6.8 a 7,7 0 0 1 -7.94,7 7.08,7.08 0 0 0 6.17,-7.02 z"
         transform="translate(-154.5,-94.48)"
         fill="#fff"
         opacity="0.2"
         id="path1085" />
      <path
         inkscape:connector-curvature="0"
         d="m 201.08,544.18 c 0,0 30.13,3.4 31.24,0 3.6,-11 -6,-22.89 -1.2,-28.7 5,-6 1.2,-14.13 1.2,-14.13 A 15.62,15.62 0 0 0 216.7,485.73 v 0 a 15.62,15.62 0 0 0 -15.62,15.62 z"
         transform="translate(-154.5,-94.48)"
         fill="#ff5252"
         id="path1087" />
      <path
         inkscape:connector-curvature="0"
         d="m 231.16,515.48 c 5,-6 1.2,-14.13 1.2,-14.13 a 15.62,15.62 0 0 0 -15.62,-15.62 c -0.34,0 -0.67,0 -1,0.05 a 15.61,15.61 0 0 1 14.62,15.57 c 0,0 3.8,8.13 -1.2,14.13 -4.84,5.81 4.8,17.69 1.2,28.7 -0.34,1.05 -3.45,1.45 -7.58,1.51 5.09,0.05 9.19,-0.29 9.58,-1.51 3.64,-11.02 -6.04,-22.89 -1.2,-28.7 z"
         transform="translate(-154.5,-94.48)"
         fill="#fff"
         opacity="0.2"
         id="path1089" />
      <path
         inkscape:connector-curvature="0"
         d="m 225.93,543.18 v 0 c 11,15.59 15.87,39.15 12.72,61.81 l -0.09,0.68 h -9.39 c 0,0 2.91,-8.57 0,-23.68 a 37.39,37.39 0 0 0 -14.24,-22.68 l -9.06,46.36 h -8.74 l 8.74,-62.49 z"
         transform="translate(-154.5,-94.48)"
         fill="#f6b9ad"
         id="path1091" />
      <path
         inkscape:connector-curvature="0"
         d="m 278.89,453.31 c 0,0 3.63,-1.52 2.07,-6.75 -1.56,-5.23 -7.9,-3.47 -7.9,-3.47 0,0 -3.85,5.67 -2.36,7.71 1.49,2.04 8.19,2.51 8.19,2.51 z"
         transform="translate(-154.5,-94.48)"
         fill="#f6b9ad"
         id="path1093" />
      <path
         inkscape:connector-curvature="0"
         d="m 225.44,503.87 c 0,0 46.81,-15.17 53.44,-50.56 l -8.67,-2.66 c 0,0 -34.45,38.46 -49,38.73 -14.55,0.27 4.23,14.49 4.23,14.49 z"
         transform="translate(-154.5,-94.48)"
         fill="#ff5252"
         id="path1095" />
      <path
         inkscape:connector-curvature="0"
         d="m 277.29,453.35 1.45,0.44 c -6.63,35.39 -53.44,50.56 -53.44,50.56 l -0.83,-0.65 c 5.53,-1.92 46.64,-17.34 52.82,-50.35 z"
         transform="translate(-154.5,-94.48)"
         fill="#fff"
         opacity="0.2"
         id="path1097" />
      <g
         opacity="0.2"
         id="g1103">
        <path
           inkscape:connector-curvature="0"
           d="m 212.92,559.31 -9.06,46.36 h 2 l 8.8,-45 a 21.63,21.63 0 0 0 -1.74,-1.36 z"
           transform="translate(-154.5,-94.48)"
           fill="#fff"
           id="path1099" />
        <path
           inkscape:connector-curvature="0"
           d="m 225.93,543.18 h -2 c 11,15.59 15.87,39.15 12.72,61.81 l -0.09,0.68 h 2 l 0.09,-0.68 c 3.15,-22.66 -1.7,-46.22 -12.72,-61.81 z"
           transform="translate(-154.5,-94.48)"
           fill="#fff"
           id="path1101" />
      </g>
      <path
         inkscape:connector-curvature="0"
         d="m 277.92,453 c 0,0 3.63,-1.52 2.07,-6.75 a 4.83,4.83 0 0 0 -2.9,-3.29 4.9,4.9 0 0 1 3.86,3.58 c 1.56,5.22 -2.07,6.75 -2.07,6.75 a 27.32,27.32 0 0 1 -5.86,-1.1 29.83,29.83 0 0 0 4.9,0.81 z"
         transform="translate(-154.5,-94.48)"
         fill="#fff"
         opacity="0.2"
         id="path1105" />
      <path
         inkscape:connector-curvature="0"
         d="m 201.08,542.48 -19,40 a 235,235 0 0 1 33,4 c 21,4 31,-6 31,-6 l -13.55,-38 z"
         transform="translate(-154.5,-94.48)"
         fill="#263238"
         id="path1107" />
      <path
         inkscape:connector-curvature="0"
         d="m 206.12,605.48 c 0,0 10,2 8,6 h -18 l 1,-6 z"
         transform="translate(-154.5,-94.48)"
         fill="#ff5252"
         id="path1109" />
      <path
         inkscape:connector-curvature="0"
         d="m 238.12,605.48 c 0,0 10,2 8,6 h -18 l 1,-6 z"
         transform="translate(-154.5,-94.48)"
         fill="#ff5252"
         id="path1111" />
      <path
         inkscape:connector-curvature="0"
         d="m 231.12,453.48 c 0,0 -24,34 -13,48 l -43,-1 c 0,0 12,-77 56,-47 z"
         transform="translate(-154.5,-94.48)"
         fill="#fccc63"
         id="path1113" />
      <path
         inkscape:connector-curvature="0"
         d="m 231.12,453.48 c -6.2,-4.23 -11.76,-6.33 -16.75,-6.82 a 42.33,42.33 0 0 1 11.75,5.82 c 0,0 -24,34 -13,48 l -37.85,-0.88 c -0.1,0.57 -0.15,0.88 -0.15,0.88 l 43,1 c -11,-14 13,-48 13,-48 z"
         transform="translate(-154.5,-94.48)"
         fill="#fff"
         opacity="0.2"
         id="path1115" />
      <path
         inkscape:connector-curvature="0"
         d="m 232.58,542.48 h -3 l 13.55,38 c 0,0 -6.46,6.45 -19.9,6.91 15.47,0.5 22.9,-6.91 22.9,-6.91 z"
         transform="translate(-154.5,-94.48)"
         fill="#fff"
         opacity="0.2"
         id="path1117" />
      <path
         inkscape:connector-curvature="0"
         d="m 206.12,605.48 h -2 c 0,0 10,2 8,6 h 2 c 2,-4 -8,-6 -8,-6 z"
         transform="translate(-154.5,-94.48)"
         fill="#fff"
         opacity="0.2"
         id="path1119" />
      <path
         inkscape:connector-curvature="0"
         d="m 238.12,605.48 h -2 c 0,0 10,2 8,6 h 2 c 2,-4 -8,-6 -8,-6 z"
         transform="translate(-154.5,-94.48)"
         fill="#fff"
         opacity="0.2"
         id="path1121" />
      <rect
         x="500.62"
         y="167.67999"
         width="383"
         height="14.5"
         fill="#f5f5f5"
         id="rect1123" />
      <rect
         style="fill:url(#9a3d7bb1-47c0-4ca8-a076-fba8f746a389)"
         x="493"
         y="163.05"
         width="398"
         height="496"
         fill="url(#9a3d7bb1-47c0-4ca8-a076-fba8f746a389)"
         id="rect1125" />
      <rect
         x="500.62"
         y="182.17999"
         width="383"
         height="459.5"
         fill="#fff"
         id="rect1127" />
      <circle
         cx="509.5"
         cy="175.17999"
         r="3.5"
         fill="#ff5252"
         id="circle1129" />
      <circle
         cx="519.12"
         cy="175.17999"
         r="3.5"
         fill="#ff0"
         id="circle1131" />
      <circle
         cx="528.75"
         cy="175.17999"
         r="3.5"
         fill="#69f0ae"
         id="circle1133" />
      <g
         opacity="0.2"
         id="g1137">
        <rect
           x="524.62"
           y="202.67999"
           width="336"
           height="9"
           fill="#38d39f"
           id="rect1135" />
      </g>
      <rect
         style="fill:url(#89aca64f-6823-4107-b0e5-363f57c50e19)"
         x="522.62"
         y="241.67999"
         width="145"
         height="154"
         fill="url(#89aca64f-6823-4107-b0e5-363f57c50e19)"
         id="rect1139" />
      <rect
         x="525.62"
         y="246.67999"
         width="139"
         height="144"
         fill="#fff"
         id="rect1141" />
      <rect
         style="fill:url(#244838b0-6b94-4a4f-974c-f4ebcd2d6e43)"
         x="715.62"
         y="318.67999"
         width="145"
         height="154"
         fill="url(#244838b0-6b94-4a4f-974c-f4ebcd2d6e43)"
         id="rect1143" />
      <rect
         x="718.62"
         y="323.67999"
         width="139"
         height="144"
         fill="#fff"
         id="rect1145" />
      <rect
         style="fill:url(#a95129aa-3a9b-452b-80f4-39c8b969ae6a)"
         x="525.62"
         y="508.67999"
         width="341"
         height="106"
         fill="url(#a95129aa-3a9b-452b-80f4-39c8b969ae6a)"
         id="rect1147" />
      <rect
         x="532.62"
         y="515.67999"
         width="328"
         height="95"
         fill="#38d39f"
         opacity="0.5"
         id="rect1149" />
      <polygon
         points="532.62,610.68 540.62,610.68 540.62,524.68 860.62,524.68 860.62,515.68 532.62,515.68 "
         fill="#fff"
         opacity="0.5"
         id="polygon1151" />
      <path
         style="fill:url(#09992bb0-0588-4d4c-95c8-1ad271d94435)"
         inkscape:connector-curvature="0"
         d="m 796.09,372.71 a 62,62 0 1 0 15,40.45 61.84,61.84 0 0 0 -15,-40.45 z m -25,77.47 a 43,43 0 1 1 21.08,-37 42.81,42.81 0 0 1 -21.05,37 z"
         transform="translate(-154.5,-94.48)"
         fill="url(#09992bb0-0588-4d4c-95c8-1ad271d94435)"
         id="path1153" />
      <path
         inkscape:connector-curvature="0"
         d="m 780.17,386.42 13.65,-11.75 a 58.85,58.85 0 0 0 -44.7,-20.51 v 18 a 40.91,40.91 0 0 1 31.05,14.26 z"
         transform="translate(-154.5,-94.48)"
         fill="#ff5252"
         id="path1155" />
      <path
         inkscape:connector-curvature="0"
         d="m 749.12,454.15 a 40.74,40.74 0 0 1 -16.92,-3.67 l -7.43,16.41 a 59,59 0 0 0 54.49,-3 l -9.2,-15.49 a 40.74,40.74 0 0 1 -20.94,5.75 z"
         transform="translate(-154.5,-94.48)"
         fill="#69f0ae"
         id="path1157" />
      <path
         inkscape:connector-curvature="0"
         d="m 808.12,413.15 a 58.75,58.75 0 0 0 -14.3,-38.49 l -13.65,11.75 a 40.93,40.93 0 0 1 -10.11,62 l 9.2,15.49 a 59,59 0 0 0 28.86,-50.75 z"
         transform="translate(-154.5,-94.48)"
         fill="#ff9800"
         id="path1159" />
      <path
         inkscape:connector-curvature="0"
         d="m 708.12,413.15 a 41,41 0 0 1 41,-41 v -18 a 59,59 0 0 0 -24.35,112.74 l 7.43,-16.41 a 41,41 0 0 1 -24.08,-37.33 z"
         transform="translate(-154.5,-94.48)"
         fill="#38d39f"
         id="path1161" />
      <rect
         style="fill:url(#e976fbab-c7be-4f98-b33a-a56658b85843)"
         x="737.62"
         y="344.67999"
         width="106"
         height="18"
         fill="url(#e976fbab-c7be-4f98-b33a-a56658b85843)"
         id="rect1163" />
      <rect
         x="738.62"
         y="345.67999"
         width="104"
         height="16"
         fill="#38d39f"
         id="rect1165" />
      <rect
         x="738.62"
         y="372.67999"
         width="76"
         height="16"
         fill="#ff5252"
         id="rect1167" />
      <rect
         x="738.62"
         y="399.67999"
         width="52"
         height="16"
         fill="#69f0ae"
         id="rect1169" />
      <rect
         x="738.62"
         y="426.67999"
         width="94"
         height="16"
         fill="#ff9800"
         id="rect1171" />
      <rect
         x="525.62"
         y="419.67999"
         width="149"
         height="9"
         fill="#f5f5f5"
         id="rect1173" />
      <rect
         x="525.62"
         y="434.67999"
         width="84"
         height="9"
         fill="#f5f5f5"
         id="rect1175" />
      <rect
         x="624.62"
         y="434.67999"
         width="29"
         height="9"
         fill="#f5f5f5"
         id="rect1177" />
      <rect
         x="624.62"
         y="467.67999"
         width="29"
         height="9"
         fill="#f5f5f5"
         id="rect1179" />
      <rect
         x="525.62"
         y="464.67999"
         width="84"
         height="9"
         fill="#f5f5f5"
         id="rect1181" />
      <rect
         x="525.62"
         y="449.67999"
         width="149"
         height="9"
         fill="#f5f5f5"
         id="rect1183" />
      <rect
         x="713.62"
         y="242.67999"
         width="149"
         height="9"
         fill="#f5f5f5"
         id="rect1185" />
      <rect
         x="713.62"
         y="257.67999"
         width="84"
         height="9"
         fill="#f5f5f5"
         id="rect1187" />
      <rect
         x="812.62"
         y="257.67999"
         width="29"
         height="9"
         fill="#f5f5f5"
         id="rect1189" />
      <rect
         x="812.62"
         y="290.67999"
         width="29"
         height="9"
         fill="#f5f5f5"
         id="rect1191" />
      <rect
         x="713.62"
         y="287.67999"
         width="84"
         height="9"
         fill="#f5f5f5"
         id="rect1193" />
      <rect
         x="713.62"
         y="272.67999"
         width="149"
         height="9"
         fill="#f5f5f5"
         id="rect1195" />
      <circle
         style="fill:url(#294b6eda-21ba-4cef-8333-d7c4aaac1d9e)"
         cx="760.62"
         cy="688.67999"
         r="11"
         fill="url(#294b6eda-21ba-4cef-8333-d7c4aaac1d9e)"
         id="circle1197" />
      <circle
         cx="760.62"
         cy="688.67999"
         r="8"
         fill="#ff5252"
         id="circle1199" />
      <rect
         style="fill:url(#065b80c5-77d7-4835-9968-dbf0ab7011d1)"
         x="435.62"
         y="566.67999"
         width="344"
         height="121"
         fill="url(#065b80c5-77d7-4835-9968-dbf0ab7011d1)"
         id="rect1201" />
      <rect
         x="445.62"
         y="571.67999"
         width="328"
         height="95"
         fill="#fff"
         id="rect1203" />
      <line
         style="fill:url(#2a3369eb-9ffa-44ee-b4f3-0d72059a1e3a)"
         x1="456.62"
         y1="648.67999"
         x2="760.62"
         y2="648.67999"
         stroke="#38d39f"
         stroke-miterlimit="10"
         stroke-width="3"
         fill="url(#2a3369eb-9ffa-44ee-b4f3-0d72059a1e3a)"
         id="line1205" />
      <rect
         style="fill:url(#327d5fd3-480a-4895-a6c0-ce7eb7e65eff)"
         x="459.62"
         y="590.67999"
         width="45"
         height="55"
         fill="url(#327d5fd3-480a-4895-a6c0-ce7eb7e65eff)"
         id="rect1207" />
      <rect
         x="462.12"
         y="593.17999"
         width="40"
         height="51"
         fill="#38d39f"
         id="rect1209" />
      <rect
         x="712.62"
         y="629.67999"
         width="40"
         height="16"
         fill="#69f0ae"
         id="rect1211" />
      <rect
         x="637.62"
         y="608.67999"
         width="40"
         height="36"
         fill="#ff9800"
         id="rect1213" />
      <rect
         x="549.62"
         y="614.67999"
         width="40"
         height="30"
         fill="#ff5252"
         id="rect1215" />
      <rect
         x="445.62"
         y="666.67999"
         width="328"
         height="14"
         fill="#ff5252"
         id="rect1217" />
      <circle
         style="fill:url(#47ebed85-0f1a-4564-9c94-c36bbc13acdd)"
         cx="459.62"
         cy="688.67999"
         r="11"
         fill="url(#47ebed85-0f1a-4564-9c94-c36bbc13acdd)"
         id="circle1219" />
      <circle
         cx="459.62"
         cy="688.67999"
         r="8"
         fill="#ff5252"
         id="circle1221" />
      <rect
         x="437.62"
         y="575.67999"
         width="8"
         height="105"
         fill="#ff5252"
         id="rect1223" />
      <rect
         x="437.62"
         y="575.67999"
         width="8"
         height="105"
         opacity="0.2"
         id="rect1225" />
      <path
         style="fill:url(#2b699f83-9fbb-4b6d-8a24-a3f0d4476570)"
         inkscape:connector-curvature="0"
         d="m 600.65,681.32 c 0,-0.11 0,-0.21 0,-0.32 0,-0.11 0,-0.33 0,-0.49 0,-0.16 0,-0.21 -0.06,-0.31 -0.06,-0.1 -0.07,-0.3 -0.12,-0.44 -0.05,-0.14 -0.06,-0.19 -0.1,-0.29 -0.04,-0.1 -0.12,-0.28 -0.18,-0.42 l -0.12,-0.25 c -0.08,-0.14 -0.17,-0.28 -0.26,-0.41 l -0.13,-0.19 a 6.62,6.62 0 0 0 -0.42,-0.52 v 0 0 a 9.62,9.62 0 0 0 -2.79,-2.06 8.05,8.05 0 0 0 1.79,-3.08 6.42,6.42 0 0 0 0.24,-0.94 c 0,-0.1 0,-0.2 0,-0.29 a 5.46,5.46 0 0 0 0.05,-0.58 c 0,-0.11 0,-0.21 0,-0.32 0,-0.11 0,-0.33 0,-0.49 0,-0.16 0,-0.21 -0.06,-0.31 -0.06,-0.1 -0.07,-0.3 -0.12,-0.44 -0.05,-0.14 -0.06,-0.19 -0.1,-0.29 -0.04,-0.1 -0.12,-0.28 -0.18,-0.42 l -0.12,-0.25 c -0.08,-0.14 -0.17,-0.28 -0.26,-0.41 l -0.13,-0.19 a 6.62,6.62 0 0 0 -0.42,-0.52 v 0 0 a 10.07,10.07 0 0 0 -3.55,-2.4 c 0,0 -6.35,2.35 -6.77,4.93 -4.66,1 -31.82,6.65 -50.47,6.2 l -0.14,-0.37 a 16.59,16.59 0 0 0 -8.83,-14.67 v -6.28 a 7.48,7.48 0 0 0 0,-0.8 v 0 a 7.41,7.41 0 0 0 -0.12,-0.76 l 0.12,-0.07 0.51,-0.28 0.74,-0.45 0.47,-0.31 q 0.52,-0.36 1,-0.76 l 0.38,-0.33 c 0.23,-0.2 0.45,-0.4 0.67,-0.61 l 0.39,-0.38 q 0.41,-0.42 0.78,-0.86 l 0.27,-0.34 q 0.35,-0.44 0.67,-0.9 l 0.27,-0.41 q 0.29,-0.45 0.56,-0.92 l 0.17,-0.3 c 0.22,-0.4 0.42,-0.82 0.6,-1.24 l 0.15,-0.38 q 0.21,-0.51 0.38,-1 l 0.12,-0.37 c 0.14,-0.46 0.26,-0.92 0.36,-1.39 0,-0.09 0,-0.19 0.05,-0.28 q 0.11,-0.6 0.18,-1.21 c 0,-0.14 0,-0.27 0,-0.41 0,-0.5 0.08,-1 0.08,-1.51 a 16.51,16.51 0 0 0 -2.13,-8.11 c 1.07,-0.26 1.72,-0.47 1.64,-0.57 -0.41,-0.55 -0.82,-1.07 -1.25,-1.57 l -0.41,-0.47 c -0.3,-0.34 -0.59,-0.66 -0.89,-1 l -0.48,-0.49 c -0.3,-0.3 -0.6,-0.58 -0.9,-0.85 l -0.47,-0.42 c -0.38,-0.32 -0.76,-0.63 -1.14,-0.93 l -0.25,-0.2 c -0.46,-0.34 -0.92,-0.66 -1.39,-1 l -0.52,-0.32 c -0.3,-0.19 -0.61,-0.37 -0.92,-0.53 l -0.62,-0.32 -0.86,-0.41 -0.63,-0.28 c -0.3,-0.13 -0.61,-0.24 -0.92,-0.35 l -0.57,-0.21 c -0.46,-0.15 -0.92,-0.29 -1.38,-0.41 l -0.71,-0.16 -0.77,-0.16 -0.77,-0.12 -0.71,-0.08 -0.79,-0.07 h -0.68 -0.79 q -0.65,0 -1.3,0.06 v 0 c -10.23,0.84 -19.19,9.77 -19.19,24 V 655 h 16 v 5.34 a 16.59,16.59 0 0 0 -9.64,15.05 v 45.51 l -13.58,62.39 H 489 l -2.67,11.91 19.16,3.1 v 0 l 0.83,0.13 c 2,-0.86 -1.35,-4.89 -2.86,-8 a 8.54,8.54 0 0 1 -0.4,-1 7.57,7.57 0 0 1 -0.38,-1.94 L 517.4,739.2 h -0.07 l 0.35,-1.13 c 0,0 18.74,8 23.56,24.09 3.91,13 1.48,21.46 0.42,24.2 h -0.07 v 0.16 c -0.21,0.52 -0.36,0.81 -0.36,0.81 h 0.36 v 8.83 h 20.26 c 1.88,-0.95 -2.11,-3.72 -4.1,-6 a 5.67,5.67 0 0 1 -1.32,-2.55 h 0.34 l 0.16,-0.72 a 69.53,69.53 0 0 0 -20.86,-65.77 0.77,0.77 0 0 0 0.09,-0.17 74.45,74.45 0 0 0 3.51,-18.06 c 15.49,1.48 36.1,0.42 51.51,-11.52 a 48,48 0 0 0 4.21,-3.58 c 1.33,-0.1 3.66,-0.84 4.95,-4.6 a 6.42,6.42 0 0 0 0.24,-0.94 c 0,-0.1 0,-0.2 0,-0.29 a 5.46,5.46 0 0 0 0.07,-0.64 z"
         transform="translate(-154.5,-94.48)"
         fill="url(#2b699f83-9fbb-4b6d-8a24-a3f0d4476570)"
         id="path1227" />
      <path
         inkscape:connector-curvature="0"
         d="m 519.49,698.94 c 0,0 46.9,14.91 72.88,-10 l -5.51,-7.21 c 0,0 -50.4,11.23 -62.41,3 -12.01,-8.23 -4.96,14.21 -4.96,14.21 z"
         transform="translate(-154.5,-94.48)"
         fill="#38d39f"
         id="path1229" />
      <path
         inkscape:connector-curvature="0"
         d="m 591.05,688 0.92,1.2 c -26,24.92 -72.88,10 -72.88,10 0,0 -0.12,-0.38 -0.3,-1 5.59,1.67 48.02,13.08 72.26,-10.2 z"
         transform="translate(-154.5,-94.48)"
         fill="#fff"
         opacity="0.2"
         id="path1231" />
      <path
         inkscape:connector-curvature="0"
         d="m 591.37,688.93 c 0,0 3.84,0.87 5.61,-4.28 1.77,-5.15 -4.4,-7.42 -4.4,-7.42 0,0 -6.43,2.37 -6.41,4.89 0.02,2.52 5.2,6.81 5.2,6.81 z"
         transform="translate(-154.5,-94.48)"
         fill="#985454"
         id="path1233" />
      <path
         inkscape:connector-curvature="0"
         d="m 590.76,688.12 c 0,0 3.84,0.87 5.61,-4.28 a 4.83,4.83 0 0 0 -0.45,-4.36 4.9,4.9 0 0 1 1.06,5.16 c -1.77,5.16 -5.61,4.28 -5.61,4.28 a 27.32,27.32 0 0 1 -4.12,-4.31 29.83,29.83 0 0 0 3.51,3.51 z"
         transform="translate(-154.5,-94.48)"
         fill="#fff"
         opacity="0.2"
         id="path1235" />
      <path
         inkscape:connector-curvature="0"
         id="4635430b-7803-4f1f-9770-b56b2b482545"
         data-name="&lt;Path&gt;"
         d="m 541.7,781.75 h 13.89 a 4.56,4.56 0 0 0 1.31,3.57 c 1.87,2.16 5.63,4.77 3.86,5.66 H 541.7 Z"
         transform="translate(-154.5,-94.48)"
         fill="#38d39f" />
      <path
         inkscape:connector-curvature="0"
         d="m 555.89,785.32 a 4.56,4.56 0 0 1 -1.31,-3.57 h 1 a 4.56,4.56 0 0 0 1.31,3.57 c 1.87,2.16 5.63,4.77 3.86,5.66 h -1 c 1.77,-0.89 -1.99,-3.49 -3.86,-5.66 z"
         transform="translate(-154.5,-94.48)"
         fill="#fff"
         opacity="0.2"
         id="path1238" />
      <path
         inkscape:connector-curvature="0"
         id="a892faa3-7b18-4010-9d55-72c2aac7ddb8"
         data-name="&lt;Path&gt;"
         d="m 492.23,778.89 13,2.13 a 6.62,6.62 0 0 0 0.59,4.58 c 1.42,3 4.61,6.74 2.69,7.55 l -18.82,-3 z"
         transform="translate(-154.5,-94.48)"
         fill="#38d39f" />
      <path
         inkscape:connector-curvature="0"
         d="m 504.83,785.59 a 6.62,6.62 0 0 1 -0.59,-4.58 l -12.05,-2 v -0.16 l 13,2.13 a 6.62,6.62 0 0 0 0.59,4.58 c 1.42,3 4.61,6.74 2.69,7.55 l -0.79,-0.13 c 1.48,-0.98 -1.49,-4.57 -2.85,-7.39 z"
         transform="translate(-154.5,-94.48)"
         fill="#fff"
         opacity="0.2"
         id="path1241" />
      <rect
         x="514.15002"
         y="650.64001"
         width="14.11"
         height="20.91"
         rx="7.0599999"
         ry="7.0599999"
         transform="rotate(180,443.955,613.855)"
         fill="#985454"
         id="rect1243" />
      <circle
         cx="366.45001"
         cy="547.84998"
         r="15.62"
         fill="#985454"
         id="circle1245" />
      <path
         inkscape:connector-curvature="0"
         d="m 526.5,664.5 v -6.8 a 7,7 0 0 0 -0.16,-1.48 15.62,15.62 0 0 0 -6.26,-29.49 h 0.88 a 15.62,15.62 0 0 1 7.15,29.51 7,7 0 0 1 0.16,1.48 v 6.8 a 7,7 0 0 1 -7.94,7 7.08,7.08 0 0 0 6.17,-7.02 z"
         transform="translate(-154.5,-94.48)"
         fill="#fff"
         opacity="0.2"
         id="path1247" />
      <path
         inkscape:connector-curvature="0"
         d="m 505.08,720.18 c 0,0 30.13,3.4 31.24,0 7.81,-23.94 0,-42.83 0,-42.83 A 15.62,15.62 0 0 0 520.7,661.73 v 0 a 15.62,15.62 0 0 0 -15.62,15.62 z"
         transform="translate(-154.5,-94.48)"
         fill="#38d39f"
         id="path1249" />
      <path
         inkscape:connector-curvature="0"
         d="m 505.08,720.18 -13.61,62.49 h 13.61 l 14.11,-46.36 c 0,0 17.64,7.56 22.17,22.68 4.53,15.12 0,23.68 0,23.68 H 556 l 0.15,-0.68 a 65,65 0 0 0 -19.8,-61.81 v 0"
         transform="translate(-154.5,-94.48)"
         fill="#263238"
         id="path1251" />
      <path
         inkscape:connector-curvature="0"
         d="m 534.56,720.18 c 7.81,-23.94 0,-42.83 0,-42.83 a 15.62,15.62 0 0 0 -14.61,-15.59 c 0.33,0 0.67,0 1,0 v 0 a 15.62,15.62 0 0 1 15.62,15.62 c 0,0 7.81,18.9 0,42.83 -0.4,1.22 -4.52,1.56 -9.64,1.51 4.16,-0.09 7.29,-0.49 7.63,-1.54 z"
         transform="translate(-154.5,-94.48)"
         fill="#fff"
         opacity="0.2"
         id="path1253" />
      <g
         opacity="0.2"
         id="g1259">
        <path
           inkscape:connector-curvature="0"
           d="m 518.93,737.41 -13.85,45.51 h -2 l 14.11,-46.36 c 0,0 0.65,0.28 1.74,0.85 z"
           transform="translate(-154.5,-94.48)"
           fill="#fff"
           id="path1255" />
        <path
           inkscape:connector-curvature="0"
           d="m 534.31,720.43 h 2 a 65,65 0 0 1 19.8,61.81 l -0.15,0.68 h -2 l 0.15,-0.68 a 65,65 0 0 0 -19.8,-61.81 z"
           transform="translate(-154.5,-94.48)"
           fill="#fff"
           id="path1257" />
      </g>
      <path
         inkscape:connector-curvature="0"
         d="m 517.49,688.94 c 0,0 46.9,14.91 72.88,-10 l -5.51,-7.21 c 0,0 -50.4,11.23 -62.41,3 -12.01,-8.23 -4.96,14.21 -4.96,14.21 z"
         transform="translate(-154.5,-94.48)"
         fill="#38d39f"
         id="path1261" />
      <path
         inkscape:connector-curvature="0"
         d="m 589.05,678 0.92,1.2 c -26,24.92 -72.88,10 -72.88,10 0,0 -0.12,-0.38 -0.3,-1 5.59,1.67 48.02,13.08 72.26,-10.2 z"
         transform="translate(-154.5,-94.48)"
         fill="#fff"
         opacity="0.2"
         id="path1263" />
      <path
         inkscape:connector-curvature="0"
         d="m 589.37,678.93 c 0,0 3.84,0.87 5.61,-4.28 1.77,-5.15 -4.4,-7.42 -4.4,-7.42 0,0 -6.43,2.37 -6.41,4.89 0.02,2.52 5.2,6.81 5.2,6.81 z"
         transform="translate(-154.5,-94.48)"
         fill="#985454"
         id="path1265" />
      <path
         inkscape:connector-curvature="0"
         d="m 588.76,678.12 c 0,0 3.84,0.87 5.61,-4.28 a 4.83,4.83 0 0 0 -0.45,-4.36 4.9,4.9 0 0 1 1.06,5.16 c -1.77,5.16 -5.61,4.28 -5.61,4.28 a 27.32,27.32 0 0 1 -4.12,-4.31 29.83,29.83 0 0 0 3.51,3.51 z"
         transform="translate(-154.5,-94.48)"
         fill="#fff"
         opacity="0.2"
         id="path1267" />
      <path
         inkscape:connector-curvature="0"
         d="m 522.12,637.15 -1,21 h -22 V 647 c 0,-22.39 23.67,-30.89 37,-12.9 0.33,0.49 -14,3.05 -14,3.05 z"
         transform="translate(-154.5,-94.48)"
         fill="#263238"
         id="path1269" />
      <path
         inkscape:connector-curvature="0"
         d="m 517.18,624.49 c 5.61,0.46 11.38,3.52 15.94,9.67 0.33,0.44 -14,3 -14,3 l -1,21 h 3 l 1,-21 c 0,0 14.33,-2.56 14,-3 -5.37,-7.26 -12.43,-10.16 -18.94,-9.67 z"
         transform="translate(-154.5,-94.48)"
         fill="#fff"
         opacity="0.2"
         id="path1271" />
    </g>
    <g
       style="opacity:1;stop-opacity:1"
       inkscape:label="Warstwa 1"
       id="layer1-3"
       transform="matrix(0.12206908,0,0,0.12206908,-21.706131,65.582536)">
      <g
         id="g110"
         transform="matrix(0.1003562,0,0,0.1003562,298.66702,34.376853)">
        <text
           xml:space="preserve"
           id="text9455"
           style="font-style:normal;font-weight:normal;font-size:48px;line-height:0%;font-family:Arial;fill:#000000;fill-opacity:1;stroke:none;stroke-width:1px;stroke-linecap:butt;stroke-linejoin:miter;stroke-opacity:1"
           y="781.2334"
           x="1120.7891"><tspan
             id="tspan9457"
             y="781.2334"
             x="1120.7891" /></text>
      </g>
      <path
         style="fill:#868686;fill-opacity:0.902834;fill-rule:nonzero;stroke:none;stroke-width:0.242477"
         id="path112"
         d="m 237.68798,48.168823 c -5.14516,1.641386 -10.44242,2.767715 -15.73176,3.832843 -4.76292,0.930609 -9.55496,1.694401 -14.29264,2.750345 -2.308,0.519431 -4.5442,1.269378 -6.72214,2.185062 -1.60461,0.760988 -3.24077,1.436812 -4.9076,2.047184 -1.45273,0.558902 -2.95512,0.964517 -4.42668,1.465307 -2.0771,0.605508 -4.01011,1.554776 -5.89974,2.589933 -26.99591,15.698472 -1.40273,0.838291 -2.11591,1.236756 -4.00671,2.2386 -8.90761,4.810246 -12.8894,7.656 -0.7526,0.5409 -1.58138,0.959456 -2.36953,1.442404 -0.22977,0.140785 -0.91124,0.575066 -0.67754,0.440923 5.94555,-3.412844 16.84904,-9.843662 -1.22699,0.779936 -0.8558,0.469656 -1.63362,1.053305 -2.40413,1.648726 2.85838,-1.670398 5.71452,-3.344621 8.57513,-5.011195 0.0679,-0.03957 -0.12878,0.0905 -0.19674,0.129993 -3.01826,1.754206 -6.03859,3.504855 -9.06157,5.250919 -0.0781,0.04512 -0.31935,0.167748 -0.24136,0.122429 8.42987,-4.898076 11.50329,-6.411262 8.25882,-4.805648 -3.98665,1.490112 -7.48455,3.940833 -11.18842,6.06602 14.82561,-8.588032 10.64454,-5.441839 7.05617,-4.360953 -4.75205,0.644596 17.08249,-10.094291 -9.55765,5.247507 -0.0662,0.03812 -0.28613,0.102071 -0.22017,0.06355 8.71421,-5.023493 11.53276,-6.681447 8.4998,-4.898047 -0.16143,0.0881 -0.0859,0.04759 -0.22642,0.121954 0,0 -8.13036,6.433024 -8.13036,6.433024 v 0 c 0.16588,-0.05911 0.0772,-0.02655 0.26558,-0.09849 3.41515,-1.353974 0.49775,-0.187073 9.2435,-5.274334 0.0732,-0.04257 0.25764,-0.216946 0.18403,-0.175099 -2.90836,1.653257 -5.76988,3.388848 -8.69461,5.012958 -0.12636,0.07016 0.27014,-0.629062 0.35758,-0.245176 3.81777,0.0012 9.82176,-6.180319 10.84655,-5.533847 -2.83866,1.624677 -5.66989,3.262407 -8.51597,4.874034 -0.12274,0.0695 0.21469,-0.189969 0.34391,-0.246519 0.40472,-0.177122 0.87987,-0.21674 1.28834,-0.416388 0.11413,-0.05579 0.21328,-0.138077 0.31993,-0.207115 3.71949,-1.007222 0.413,-0.08208 9.49458,-5.316832 0.0841,-0.04851 0.30999,-0.232526 0.22542,-0.18472 -20.61989,11.655813 -1.94454,1.350502 0.67187,-0.367196 0.76086,-0.557217 1.56543,-1.044845 2.34651,-1.572563 -18.52154,10.648686 -1.34212,1.044228 4.19476,-2.634309 1.13998,-0.742061 0.70226,-0.467495 1.93787,-1.225676 0.37444,-0.229755 1.50652,-0.90424 1.12473,-0.686925 -5.11249,2.910088 -17.36816,10.032166 2.22909,-1.271197 2.54293,-1.46672 -5.09299,2.921043 -7.63948,4.381566 1.82761,-1.056864 3.6735,-2.091612 5.7075,-2.702913 1.4982,-0.445503 2.97461,-0.94533 4.46001,-1.433979 1.68328,-0.622676 3.36904,-1.217967 4.98719,-1.999285 2.12189,-1.097751 4.41071,-1.786943 6.70277,-2.441079 4.81975,-1.145243 9.67302,-2.105638 14.54971,-2.982562 5.1362,-1.011047 10.2721,-2.080684 15.33169,-3.424714 0,0 8.13377,-6.262614 8.13377,-6.262614 z"
         inkscape:connector-curvature="0" />
      <path
         style="fill:#868686;fill-opacity:0.902834;fill-rule:nonzero;stroke:none;stroke-width:0.242477"
         id="path114"
         d="m 156.8827,81.757421 c 1.40601,4.903972 2.68953,9.841608 4.01961,14.766975 1.19418,3.582614 1.87735,7.260204 2.17856,11.014194 0.26828,4.56405 0.24768,9.13815 0.21346,13.70792 -0.076,3.74176 0.0179,7.48563 -0.13842,11.22508 -0.42323,4.23957 -1.6268,8.32759 -2.94932,12.35875 -1.10562,3.33805 -2.50162,6.5677 -3.62871,9.89652 -0.61429,1.79611 -1.00013,3.62906 -1.0698,5.52349 0.11505,1.82777 0.6027,3.58325 1.37005,5.23853 0.65993,1.5196 1.67042,2.85032 2.63469,4.18605 0.55091,0.67764 1.10097,1.35509 1.63718,2.04441 0,0 8.77122,-5.23596 8.77122,-5.23596 v 0 c -0.53554,-0.66565 -1.05412,-1.3448 -1.60803,-1.99543 -0.89746,-1.30605 -1.91325,-2.55449 -2.54932,-4.01799 -0.68291,-1.51421 -1.12959,-3.138 -1.11211,-4.81135 0.14498,-1.77631 0.48872,-3.51939 1.05226,-5.21416 1.10941,-3.31019 2.47747,-6.52878 3.51872,-9.8635 1.2711,-4.12298 2.4613,-8.2877 2.85124,-12.60387 0.17395,-3.74374 0.0709,-7.49323 0.0715,-11.24012 -0.0318,-4.59925 0.004,-9.20275 -0.20825,-13.79789 -0.0961,-1.27295 -0.16566,-2.58082 -0.37192,-3.843726 -0.40655,-2.489329 -1.27486,-4.890149 -1.98328,-7.300403 -1.43844,-4.825565 -2.93805,-9.688424 -3.54845,-14.700129 0,0 -9.15088,4.662609 -9.15088,4.662609 z"
         inkscape:connector-curvature="0" />
      <path
         style="fill:#868686;fill-opacity:0.902834;fill-rule:nonzero;stroke:none;stroke-width:0.242477"
         id="path126"
         d="m 162.32467,172.7353 c 7.97676,2.00602 15.63582,5.11846 23.17901,8.35689 8.55646,3.74161 16.45506,8.72669 24.21263,13.87775 6.28367,4.22013 12.40441,8.67362 18.47726,13.18951 5.18144,3.93588 10.34164,7.8992 15.61727,11.70869 0,0 8.14729,-5.18222 8.14729,-5.18222 v 0 c -5.32365,-3.7258 -10.57419,-7.56029 -15.6063,-11.6751 -5.98447,-4.71787 -12.44551,-8.78093 -18.70386,-13.12091 -0.17339,-0.1154 -7.5489,-5.02597 -7.72996,-5.13915 -5.33384,-3.3342 -10.96912,-6.19163 -16.68512,-8.80161 -2.31736,-1.03025 -6.95998,-3.1237 -9.36865,-4.08239 -4.3391,-1.72702 -8.79176,-3.18819 -13.13601,-4.90156 0,0 -8.40356,5.7701 -8.40356,5.7701 z"
         inkscape:connector-curvature="0" />
      <path
         style="fill:#868686;fill-opacity:0.902834;fill-rule:nonzero;stroke:none;stroke-width:0.242477"
         id="path130"
         d="m 327.45386,222.80632 c -0.62907,-6.21685 0.70457,-12.25647 2.14107,-18.26339 2.63739,-9.53585 7.04125,-18.42009 11.62302,-27.1421 3.26538,-5.84692 6.3887,-11.7741 9.72295,-17.58229 0.33956,-0.58954 0.67912,-1.17907 1.01868,-1.76861 0,0 -9.10278,4.06622 -9.10278,4.06622 v 0 c -0.31747,0.58144 -0.63494,1.16289 -0.95241,1.74433 -3.10959,5.81306 -6.20005,11.63637 -9.3354,17.4357 -4.53417,8.76013 -8.67678,17.77404 -11.38597,27.28425 -0.79453,3.24611 -1.62924,6.37377 -2.17223,9.67408 -0.50094,3.04478 -0.5908,6.13825 -0.70781,9.21441 0,0 9.15088,-4.6626 9.15088,-4.6626 z"
         inkscape:connector-curvature="0" />
      <path
         style="fill:#868686;fill-opacity:0.902834;fill-rule:nonzero;stroke:none;stroke-width:0.242477"
         id="path132"
         d="m 352.0219,158.29367 c -1.99428,-3.64506 -4.05448,-7.24715 -5.89036,-10.97745 -1.9285,-4.016 -3.91419,-8.00396 -5.84125,-12.02066 -1.87122,-3.58274 -3.30534,-7.35365 -4.84492,-11.08193 0,0 -8.75264,4.91272 -8.75264,4.91272 v 0 c 1.62431,3.70601 3.12174,7.46639 4.93739,11.08687 1.96612,4.00102 3.95108,7.99115 5.92608,11.98765 1.90672,3.72218 3.94349,7.39418 5.56247,11.25307 0,0 8.90323,-5.16027 8.90323,-5.16027 z"
         inkscape:connector-curvature="0" />
      <path
         style="fill:#868686;fill-opacity:0.902834;fill-rule:nonzero;stroke:none;stroke-width:0.242477"
         id="path959-3"
         d="m 335.07044,123.21226 c -0.39733,-4.09844 0.39472,-8.13274 1.2485,-12.1172 0.82071,-3.76631 1.99196,-7.4362 3.63158,-10.92138 0.68573,-1.080545 0.34003,-0.587716 1.02195,-1.489024 0,0 -9.29242,4.072524 -9.29242,4.072524 v 0 c -0.54546,0.96544 -0.26825,0.43957 -0.81714,1.58514 -1.41649,3.52055 -2.33541,7.20587 -3.13554,10.91061 -0.84282,4.17406 -1.58349,8.3572 -1.79956,12.61774 0,0 9.14263,-4.65841 9.14263,-4.65841 z"
         inkscape:connector-curvature="0" />
      <path
         style="fill:#868686;fill-opacity:0.902834;fill-rule:nonzero;stroke:none;stroke-width:0.242477"
         id="path965"
         d="m 341.03295,96.756294 c -1.9192,-2.92951 -3.37128,-6.140002 -5.03247,-9.219276 -2.57439,-4.452134 -5.49326,-8.687852 -8.38515,-12.936274 -1.88492,-2.684672 -3.51438,-5.536893 -4.95314,-8.481902 -1.00308,-1.881109 -1.58441,-3.90767 -1.95678,-5.993572 0,0 -8.85575,4.737413 -8.85575,4.737413 v 0 c 0.48395,2.143796 1.15248,4.225891 2.1788,6.179699 1.55458,2.94252 3.17178,5.856499 5.21256,8.500015 3.04152,4.087418 6.03613,8.24186 8.3788,12.779832 1.54608,3.147462 3.10074,6.294995 4.48423,9.518041 0,0 8.9289,-5.083976 8.9289,-5.083976 z"
         inkscape:connector-curvature="0" />
      <path
         style="fill:#868686;fill-opacity:0.902834;fill-rule:nonzero;stroke:none;stroke-width:0.242477"
         id="path969"
         d="m 321.7652,59.20341 c -4.03296,0.09397 -8.05712,0.397953 -12.08636,0.604012 -8.64841,0.533988 -17.30919,0.818457 -25.97268,0.927335 -5.17123,0.04499 -10.34208,0.06873 -15.51322,0.0075 -3.12581,0.0032 -6.23515,-0.356941 -9.35396,-0.522186 -3.0263,-0.148219 -6.05672,-0.208281 -9.08644,-0.226204 -1.60651,0.01995 -3.20559,-0.03471 -4.80382,-0.192758 0,0 -8.18256,5.817835 -8.18256,5.817835 v 0 c 1.64615,0.175473 3.28263,0.303442 4.94081,0.213428 3.03329,0.01637 6.06754,0.01096 9.09831,0.158247 3.16313,0.175755 6.32079,0.558485 9.49109,0.491061 5.31881,-0.07989 10.63932,-0.10828 15.95552,-0.304087 8.65857,-0.298143 17.31507,-0.656365 25.97455,-0.919477 3.74524,-0.04235 7.49329,-0.181484 11.23743,-0.02344 0,0 8.30133,-6.031275 8.30133,-6.031275 z"
         inkscape:connector-curvature="0" />
      <path
         style="fill:#868686;fill-opacity:0.902834;fill-rule:nonzero;stroke:none;stroke-width:0.242477"
         id="path1195"
         d="m 244.40099,62.916297 c -2.79686,-1.188129 -5.06701,-3.284423 -7.23768,-5.354006 -1.80784,-1.873049 -3.21714,-3.989285 -4.31532,-6.333861 0,0 -6.74099,3.819972 -6.74099,3.819972 v 0 c 0.26951,0.560716 0.49958,1.14216 0.80853,1.682142 1.01457,1.773184 2.43727,3.277591 3.7188,4.850528 2.16689,2.099219 4.34954,4.264297 6.95669,5.815945 0,0 6.80997,-4.48072 6.80997,-4.48072 z"
         inkscape:connector-curvature="0" />
      <circle
         id="path1197"
         style="fill:#000000;stroke:#000000;stroke-width:0.916448"
         cx="248.27573"
         cy="216.88393"
         r="0.27454835" />
      <path
         style="fill:#868686;fill-opacity:0.902834;fill-rule:nonzero;stroke:none;stroke-width:0.242477"
         id="path1209"
         d="m 244.02671,220.86348 c 7.47918,-0.45383 14.9639,-0.43775 22.45071,-0.2379 10.52196,0.46874 20.91367,2.27586 31.18521,4.51477 1.3774,0.31547 2.75858,0.61484 4.13219,0.94641 0.75325,0.18182 5.91394,1.5239 6.84591,1.73875 3.29913,0.76055 6.63551,1.27552 9.97979,1.78548 3.21583,0.52366 6.46721,0.75503 9.71448,0.97567 0,0 8.14641,-5.85819 8.14641,-5.85819 v 0 c -3.32997,-0.10116 -6.65759,-0.27878 -9.96666,-0.68493 -7.17815,-0.94035 -14.20309,-2.61125 -21.26507,-4.1792 -10.44258,-2.10915 -20.97648,-3.86336 -31.635,-4.38728 -7.018,-0.29116 -14.03914,-0.46838 -21.05402,-0.81386 0,0 -8.53395,6.20028 -8.53395,6.20028 z"
         inkscape:connector-curvature="0" />
      <path
         style="fill:#38d39f;fill-opacity:0.941176;fill-rule:nonzero;stroke:none;stroke-width:0.264583"
         id="path1013"
         d="m 298.68121,89.960728 c -2.85973,0.358566 -5.73382,0.548619 -8.60425,0.797065 -4.60642,0.439187 -9.22495,0.712724 -13.82683,1.203309 -4.55974,0.568132 -9.05855,1.493713 -13.49924,2.660311 -2.36788,0.681326 -4.71793,1.482556 -6.95113,2.530528 -0.95474,0.531223 -1.98864,0.826133 -3.06006,0.995699 0,0 -8.94355,6.68764 -8.94355,6.68764 v 0 c 1.14601,-0.13783 2.28688,-0.26383 3.35202,-0.74622 2.23086,-1.24734 4.65056,-2.13011 7.07659,-2.91689 4.44601,-1.272473 8.94783,-2.350584 13.54753,-2.90515 4.53764,-0.538062 9.09594,-0.767654 13.65122,-1.103464 2.73056,-0.25219 5.47786,-0.265183 8.19954,-0.621686 0,0 9.05816,-6.581142 9.05816,-6.581142 z"
         inkscape:connector-curvature="0" />
      <path
         style="fill:#38d39f;fill-opacity:0.941176;fill-rule:nonzero;stroke:none;stroke-width:0.264583"
         id="path1015-9"
         d="m 247.12037,104.35249 c -0.85719,2.52999 -1.69751,5.0734 -2.65355,7.56905 -1.29758,3.3187 -2.49323,6.67415 -3.58606,10.06561 -0.95698,3.47587 -1.73875,7.00435 -2.31044,10.56387 0,0 9.53451,-4.65638 9.53451,-4.65638 v 0 c 0.64132,-3.53246 1.43447,-7.03492 2.48482,-10.47078 1.14114,-3.37897 2.39665,-6.71655 3.66802,-10.0485 1.00106,-2.62097 1.94207,-5.26614 2.98296,-7.8709 0,0 -10.12026,4.84803 -10.12026,4.84803 z"
         inkscape:connector-curvature="0" />
      <path
         style="fill:#38d39f;fill-opacity:0.941176;fill-rule:nonzero;stroke:none;stroke-width:0.264583"
         id="path1017"
         d="m 242.24832,134.3311 c 4.11061,-0.33894 8.16763,0.25616 12.20544,0.95615 6.28917,1.32428 12.24309,3.73863 17.66904,7.18406 1.25655,0.79791 2.4533,1.68632 3.67994,2.52948 0,0 8.36825,-5.32977 8.36825,-5.32977 v 0 c -1.22332,-0.87666 -2.41152,-1.80452 -3.66996,-2.62998 -5.38487,-3.53215 -11.27331,-6.21127 -17.55804,-7.66204 -3.82733,-0.91779 -7.70963,-1.59103 -11.6596,-1.61226 0,0 -9.03507,6.56436 -9.03507,6.56436 z"
         inkscape:connector-curvature="0" />
      <path
         style="fill:#38d39f;fill-opacity:0.941176;fill-rule:nonzero;stroke:none;stroke-width:0.264583"
         id="path1024"
         d="m 271.92912,144.30469 c -0.84221,3.6791 -1.03248,7.4783 -1.31342,11.23605 -0.15933,2.06728 -0.3382,4.12596 -0.3108,6.20067 0.006,0.47582 -0.0348,0.95778 0.0452,1.42685 0.18087,1.05974 0.49476,1.39666 1.0288,2.26553 1.68396,1.61941 3.87073,2.15381 6.05557,2.74661 3.52739,0.95705 1.23953,0.36346 5.24466,1.36292 3.11451,0.8339 6.25562,1.55756 9.40133,2.26151 0,0 8.51109,-5.91522 8.51109,-5.91522 v 0 c -3.13728,-0.63274 -6.27332,-1.28279 -9.33322,-2.23681 -3.49619,-1.04017 -7.29349,-1.75167 -10.37264,-3.77862 -0.17217,-0.24302 -0.3841,-0.46229 -0.51651,-0.72907 -1.06342,-2.14244 -0.26315,-6.0116 -0.32946,-8.31483 0.3,-3.74718 0.49828,-7.68747 2.10414,-11.14707 0,0 -10.21477,4.62148 -10.21477,4.62148 z"
         inkscape:connector-curvature="0" />
      <path
         style="fill:#38d39f;fill-opacity:0.941176;fill-rule:nonzero;stroke:none;stroke-width:0.264583"
         id="path1030"
         d="m 301.26672,164.54892 c 0.24515,-1.8372 0.32382,-3.69007 0.45319,-5.53868 0.0658,-1.53589 0.0778,-3.03592 0.35636,-4.54931 0.0452,-0.85437 0.5729,-1.48812 0.94058,-2.2031 0.85698,-1.66643 -0.3604,0.29612 0.62201,-1.22128 1.0241,-1.37947 1.73511,-2.95301 2.66365,-4.40016 1.24933,-2.10614 2.1941,-4.2704 2.66169,-6.67609 0.44977,-1.6554 -0.0357,-3.14277 -0.50452,-4.7209 0,0 -9.61769,5.24111 -9.61769,5.24111 v 0 c 0.38809,1.43188 0.65597,2.77908 0.23531,4.2484 -0.57282,2.27656 -1.55911,4.36286 -2.83103,6.33844 -0.92638,1.49638 -1.7874,3.03194 -2.76235,4.49761 -0.60776,1.21006 -1.27387,2.38319 -1.37544,3.76958 -0.22976,1.5363 -0.21662,3.0836 -0.25426,4.63417 -0.0729,1.82335 -0.19482,3.66775 -0.70777,5.42824 0,0 10.12027,-4.84803 10.12027,-4.84803 z"
         inkscape:connector-curvature="0" />
      <path
         style="fill:#38d39f;fill-opacity:0.941176;fill-rule:nonzero;stroke:none;stroke-width:0.264583"
         id="path1034"
         d="m 314.4925,134.59607 c 1.67514,-1.38539 3.35425,-2.74488 4.67658,-4.4797 1.35716,-2.11651 1.7826,-4.57238 2.33945,-6.97679 0.4174,-1.55973 0.21269,-0.78325 0.61432,-2.3294 0,0 -9.89178,4.73145 -9.89178,4.73145 v 0 c -0.39034,1.54482 -0.19135,0.76167 -0.59718,2.34942 -0.53434,2.3067 -1.04965,4.65283 -2.58841,6.53235 -1.47635,1.64626 -3.23673,2.97843 -4.87988,4.45021 0,0 10.3269,-4.27754 10.3269,-4.27754 z"
         inkscape:connector-curvature="0" />
      <path
         style="fill:#38d39f;fill-opacity:0.941176;fill-rule:nonzero;stroke:none;stroke-width:0.264583"
         id="path1038"
         d="m 320.8482,120.98323 c -3.35199,-1.84738 -6.18265,-4.59061 -8.98361,-7.17109 -2.33571,-2.34038 -4.83805,-4.52495 -6.97956,-7.05363 -1.26298,-1.49131 -1.60533,-2.0914 -2.70897,-3.71861 -2.13174,-3.338558 -3.14742,-7.092884 -3.65945,-10.974814 0,0 -9.35175,4.927187 -9.35175,4.927187 v 0 c 0.5739,4.011377 1.6424,7.964647 3.87939,11.398897 0.44579,0.6792 0.85619,1.38298 1.33735,2.0376 2.44248,3.323 5.61566,6.03467 8.53658,8.91206 2.82138,2.6347 5.61988,5.31238 8.56397,7.80493 0,0 9.36605,-6.16253 9.36605,-6.16253 z"
         inkscape:connector-curvature="0" />
    </g>
  </g>
</svg>
