<?xml version="1.0" encoding="UTF-8" standalone="no"?>
<svg
   xmlns:dc="http://purl.org/dc/elements/1.1/"
   xmlns:cc="http://creativecommons.org/ns#"
   xmlns:rdf="http://www.w3.org/1999/02/22-rdf-syntax-ns#"
   xmlns:svg="http://www.w3.org/2000/svg"
   xmlns="http://www.w3.org/2000/svg"
   xmlns:sodipodi="http://sodipodi.sourceforge.net/DTD/sodipodi-0.dtd"
   xmlns:inkscape="http://www.inkscape.org/namespaces/inkscape"
   inkscape:version="1.0beta1 (32d4812, 2019-09-19)"
   sodipodi:docname="Mazowieckie2_color.svg"
   id="svg8"
   version="1.1"
   viewBox="0 0 210 297"
   height="297mm"
   width="210mm">
  <defs
     id="defs2" />
  <sodipodi:namedview
     inkscape:window-maximized="0"
     inkscape:window-y="23"
     inkscape:window-x="0"
     inkscape:window-height="694"
     inkscape:window-width="1280"
     showgrid="false"
     inkscape:document-rotation="0"
     inkscape:current-layer="layer1-3"
     inkscape:document-units="mm"
     inkscape:cy="688.57143"
     inkscape:cx="338.75772"
     inkscape:zoom="0.35"
     inkscape:pageshadow="2"
     inkscape:pageopacity="0.0"
     borderopacity="1.0"
     bordercolor="#666666"
     pagecolor="#ffffff"
     id="base" />
  <metadata
     id="metadata5">
    <rdf:RDF>
      <cc:Work
         rdf:about="">
        <dc:format>image/svg+xml</dc:format>
        <dc:type
           rdf:resource="http://purl.org/dc/dcmitype/StillImage" />
        <dc:title></dc:title>
      </cc:Work>
    </rdf:RDF>
  </metadata>
  <g
     id="layer1"
     inkscape:groupmode="layer"
     inkscape:label="Warstwa 1">
    <g
       transform="translate(-146.96676,5.7784618)"
       id="layer1-3"
       inkscape:label="Warstwa 1">
      <g
         transform="matrix(0.1003562,0,0,0.1003562,298.66702,34.376853)"
         id="g110">
        <text
           x="1120.7891"
           y="781.2334"
           style="font-style:normal;font-weight:normal;font-size:48px;line-height:0%;font-family:Arial;fill:#000000;fill-opacity:1;stroke:none;stroke-width:1px;stroke-linecap:butt;stroke-linejoin:miter;stroke-opacity:1"
           id="text9455"
           xml:space="preserve"><tspan
             x="1120.7891"
             y="781.2334"
             id="tspan9457" /></text>
      </g>
      <path
         inkscape:connector-curvature="0"
         d="m 237.68798,48.168823 c -5.14516,1.641386 -10.44242,2.767715 -15.73176,3.832843 -4.76292,0.930609 -9.55496,1.694401 -14.29264,2.750345 -2.308,0.519431 -4.5442,1.269378 -6.72214,2.185062 -1.60461,0.760988 -3.24077,1.436812 -4.9076,2.047184 -1.45273,0.558902 -2.95512,0.964517 -4.42668,1.465307 -2.0771,0.605508 -4.01011,1.554776 -5.89974,2.589933 -26.99591,15.698472 -1.40273,0.838291 -2.11591,1.236756 -4.00671,2.2386 -8.90761,4.810246 -12.8894,7.656 -0.7526,0.5409 -1.58138,0.959456 -2.36953,1.442404 -0.22977,0.140785 -0.91124,0.575066 -0.67754,0.440923 5.94555,-3.412844 16.84904,-9.843662 -1.22699,0.779936 -0.8558,0.469656 -1.63362,1.053305 -2.40413,1.648726 2.85838,-1.670398 5.71452,-3.344621 8.57513,-5.011195 0.0679,-0.03957 -0.12878,0.0905 -0.19674,0.129993 -3.01826,1.754206 -6.03859,3.504855 -9.06157,5.250919 -0.0781,0.04512 -0.31935,0.167748 -0.24136,0.122429 8.42987,-4.898076 11.50329,-6.411262 8.25882,-4.805648 -3.98665,1.490112 -7.48455,3.940833 -11.18842,6.06602 14.82561,-8.588032 10.64454,-5.441839 7.05617,-4.360953 -4.75205,0.644596 17.08249,-10.094291 -9.55765,5.247507 -0.0662,0.03812 -0.28613,0.102071 -0.22017,0.06355 8.71421,-5.023493 11.53276,-6.681447 8.4998,-4.898047 -0.16143,0.0881 -0.0859,0.04759 -0.22642,0.121954 0,0 -8.13036,6.433024 -8.13036,6.433024 v 0 c 0.16588,-0.05911 0.0772,-0.02655 0.26558,-0.09849 3.41515,-1.353974 0.49775,-0.187073 9.2435,-5.274334 0.0732,-0.04257 0.25764,-0.216946 0.18403,-0.175099 -2.90836,1.653257 -5.76988,3.388848 -8.69461,5.012958 -0.12636,0.07016 0.27014,-0.629062 0.35758,-0.245176 3.81777,0.0012 9.82176,-6.180319 10.84655,-5.533847 -2.83866,1.624677 -5.66989,3.262407 -8.51597,4.874034 -0.12274,0.0695 0.21469,-0.189969 0.34391,-0.246519 0.40472,-0.177122 0.87987,-0.21674 1.28834,-0.416388 0.11413,-0.05579 0.21328,-0.138077 0.31993,-0.207115 3.71949,-1.007222 0.413,-0.08208 9.49458,-5.316832 0.0841,-0.04851 0.30999,-0.232526 0.22542,-0.18472 -20.61989,11.655813 -1.94454,1.350502 0.67187,-0.367196 0.76086,-0.557217 1.56543,-1.044845 2.34651,-1.572563 -18.52154,10.648686 -1.34212,1.044228 4.19476,-2.634309 1.13998,-0.742061 0.70226,-0.467495 1.93787,-1.225676 0.37444,-0.229755 1.50652,-0.90424 1.12473,-0.686925 -5.11249,2.910088 -17.36816,10.032166 2.22909,-1.271197 2.54293,-1.46672 -5.09299,2.921043 -7.63948,4.381566 1.82761,-1.056864 3.6735,-2.091612 5.7075,-2.702913 1.4982,-0.445503 2.97461,-0.94533 4.46001,-1.433979 1.68328,-0.622676 3.36904,-1.217967 4.98719,-1.999285 2.12189,-1.097751 4.41071,-1.786943 6.70277,-2.441079 4.81975,-1.145243 9.67302,-2.105638 14.54971,-2.982562 5.1362,-1.011047 10.2721,-2.080684 15.33169,-3.424714 0,0 8.13377,-6.262614 8.13377,-6.262614 z"
         id="path112"
         style="fill:#000000;fill-opacity:1;fill-rule:nonzero;stroke:none;stroke-width:0.242477" />
      <path
         inkscape:connector-curvature="0"
         d="m 156.8827,81.757421 c 1.40601,4.903972 2.68953,9.841608 4.01961,14.766975 1.19418,3.582614 1.87735,7.260204 2.17856,11.014194 0.26828,4.56405 0.24768,9.13815 0.21346,13.70792 -0.076,3.74176 0.0179,7.48563 -0.13842,11.22508 -0.42323,4.23957 -1.6268,8.32759 -2.94932,12.35875 -1.10562,3.33805 -2.50162,6.5677 -3.62871,9.89652 -0.61429,1.79611 -1.00013,3.62906 -1.0698,5.52349 0.11505,1.82777 0.6027,3.58325 1.37005,5.23853 0.65993,1.5196 1.67042,2.85032 2.63469,4.18605 0.55091,0.67764 1.10097,1.35509 1.63718,2.04441 0,0 8.77122,-5.23596 8.77122,-5.23596 v 0 c -0.53554,-0.66565 -1.05412,-1.3448 -1.60803,-1.99543 -0.89746,-1.30605 -1.91325,-2.55449 -2.54932,-4.01799 -0.68291,-1.51421 -1.12959,-3.138 -1.11211,-4.81135 0.14498,-1.77631 0.48872,-3.51939 1.05226,-5.21416 1.10941,-3.31019 2.47747,-6.52878 3.51872,-9.8635 1.2711,-4.12298 2.4613,-8.2877 2.85124,-12.60387 0.17395,-3.74374 0.0709,-7.49323 0.0715,-11.24012 -0.0318,-4.59925 0.004,-9.20275 -0.20825,-13.79789 -0.0961,-1.27295 -0.16566,-2.58082 -0.37192,-3.843726 -0.40655,-2.489329 -1.27486,-4.890149 -1.98328,-7.300403 -1.43844,-4.825565 -2.93805,-9.688424 -3.54845,-14.700129 0,0 -9.15088,4.662609 -9.15088,4.662609 z"
         id="path114"
         style="fill:#000000;fill-opacity:1;fill-rule:nonzero;stroke:none;stroke-width:0.242477" />
      <path
         inkscape:connector-curvature="0"
         d="m 162.32467,172.7353 c 7.97676,2.00602 15.63582,5.11846 23.17901,8.35689 8.55646,3.74161 16.45506,8.72669 24.21263,13.87775 6.28367,4.22013 12.40441,8.67362 18.47726,13.18951 5.18144,3.93588 10.34164,7.8992 15.61727,11.70869 0,0 8.14729,-5.18222 8.14729,-5.18222 v 0 c -5.32365,-3.7258 -10.57419,-7.56029 -15.6063,-11.6751 -5.98447,-4.71787 -12.44551,-8.78093 -18.70386,-13.12091 -0.17339,-0.1154 -7.5489,-5.02597 -7.72996,-5.13915 -5.33384,-3.3342 -10.96912,-6.19163 -16.68512,-8.80161 -2.31736,-1.03025 -6.95998,-3.1237 -9.36865,-4.08239 -4.3391,-1.72702 -8.79176,-3.18819 -13.13601,-4.90156 0,0 -8.40356,5.7701 -8.40356,5.7701 z"
         id="path126"
         style="fill:#000000;fill-opacity:1;fill-rule:nonzero;stroke:none;stroke-width:0.242477" />
      <path
         inkscape:connector-curvature="0"
         d="m 327.45386,222.80632 c -0.62907,-6.21685 0.70457,-12.25647 2.14107,-18.26339 2.63739,-9.53585 7.04125,-18.42009 11.62302,-27.1421 3.26538,-5.84692 6.3887,-11.7741 9.72295,-17.58229 0.33956,-0.58954 0.67912,-1.17907 1.01868,-1.76861 0,0 -9.10278,4.06622 -9.10278,4.06622 v 0 c -0.31747,0.58144 -0.63494,1.16289 -0.95241,1.74433 -3.10959,5.81306 -6.20005,11.63637 -9.3354,17.4357 -4.53417,8.76013 -8.67678,17.77404 -11.38597,27.28425 -0.79453,3.24611 -1.62924,6.37377 -2.17223,9.67408 -0.50094,3.04478 -0.5908,6.13825 -0.70781,9.21441 0,0 9.15088,-4.6626 9.15088,-4.6626 z"
         id="path130"
         style="fill:#000000;fill-opacity:1;fill-rule:nonzero;stroke:none;stroke-width:0.242477" />
      <path
         inkscape:connector-curvature="0"
         d="m 352.0219,158.29367 c -1.99428,-3.64506 -4.05448,-7.24715 -5.89036,-10.97745 -1.9285,-4.016 -3.91419,-8.00396 -5.84125,-12.02066 -1.87122,-3.58274 -3.30534,-7.35365 -4.84492,-11.08193 0,0 -8.75264,4.91272 -8.75264,4.91272 v 0 c 1.62431,3.70601 3.12174,7.46639 4.93739,11.08687 1.96612,4.00102 3.95108,7.99115 5.92608,11.98765 1.90672,3.72218 3.94349,7.39418 5.56247,11.25307 0,0 8.90323,-5.16027 8.90323,-5.16027 z"
         id="path132"
         style="fill:#000000;fill-opacity:1;fill-rule:nonzero;stroke:none;stroke-width:0.242477" />
      <path
         inkscape:connector-curvature="0"
         d="m 335.07044,123.21226 c -0.39733,-4.09844 0.39472,-8.13274 1.2485,-12.1172 0.82071,-3.76631 1.99196,-7.4362 3.63158,-10.92138 0.68573,-1.080545 0.34003,-0.587716 1.02195,-1.489024 0,0 -9.29242,4.072524 -9.29242,4.072524 v 0 c -0.54546,0.96544 -0.26825,0.43957 -0.81714,1.58514 -1.41649,3.52055 -2.33541,7.20587 -3.13554,10.91061 -0.84282,4.17406 -1.58349,8.3572 -1.79956,12.61774 0,0 9.14263,-4.65841 9.14263,-4.65841 z"
         id="path959"
         style="fill:#000000;fill-opacity:1;fill-rule:nonzero;stroke:none;stroke-width:0.242477" />
      <path
         inkscape:connector-curvature="0"
         d="m 341.03295,96.756294 c -1.9192,-2.92951 -3.37128,-6.140002 -5.03247,-9.219276 -2.57439,-4.452134 -5.49326,-8.687852 -8.38515,-12.936274 -1.88492,-2.684672 -3.51438,-5.536893 -4.95314,-8.481902 -1.00308,-1.881109 -1.58441,-3.90767 -1.95678,-5.993572 0,0 -8.85575,4.737413 -8.85575,4.737413 v 0 c 0.48395,2.143796 1.15248,4.225891 2.1788,6.179699 1.55458,2.94252 3.17178,5.856499 5.21256,8.500015 3.04152,4.087418 6.03613,8.24186 8.3788,12.779832 1.54608,3.147462 3.10074,6.294995 4.48423,9.518041 0,0 8.9289,-5.083976 8.9289,-5.083976 z"
         id="path965"
         style="fill:#000000;fill-opacity:1;fill-rule:nonzero;stroke:none;stroke-width:0.242477" />
      <path
         inkscape:connector-curvature="0"
         d="m 321.7652,59.20341 c -4.03296,0.09397 -8.05712,0.397953 -12.08636,0.604012 -8.64841,0.533988 -17.30919,0.818457 -25.97268,0.927335 -5.17123,0.04499 -10.34208,0.06873 -15.51322,0.0075 -3.12581,0.0032 -6.23515,-0.356941 -9.35396,-0.522186 -3.0263,-0.148219 -6.05672,-0.208281 -9.08644,-0.226204 -1.60651,0.01995 -3.20559,-0.03471 -4.80382,-0.192758 0,0 -8.18256,5.817835 -8.18256,5.817835 v 0 c 1.64615,0.175473 3.28263,0.303442 4.94081,0.213428 3.03329,0.01637 6.06754,0.01096 9.09831,0.158247 3.16313,0.175755 6.32079,0.558485 9.49109,0.491061 5.31881,-0.07989 10.63932,-0.10828 15.95552,-0.304087 8.65857,-0.298143 17.31507,-0.656365 25.97455,-0.919477 3.74524,-0.04235 7.49329,-0.181484 11.23743,-0.02344 0,0 8.30133,-6.031275 8.30133,-6.031275 z"
         id="path969"
         style="fill:#000000;fill-opacity:1;fill-rule:nonzero;stroke:none;stroke-width:0.242477" />
      <path
         inkscape:connector-curvature="0"
         d="m 244.40099,62.916297 c -2.79686,-1.188129 -5.06701,-3.284423 -7.23768,-5.354006 -1.80784,-1.873049 -3.21714,-3.989285 -4.31532,-6.333861 0,0 -6.74099,3.819972 -6.74099,3.819972 v 0 c 0.26951,0.560716 0.49958,1.14216 0.80853,1.682142 1.01457,1.773184 2.43727,3.277591 3.7188,4.850528 2.16689,2.099219 4.34954,4.264297 6.95669,5.815945 0,0 6.80997,-4.48072 6.80997,-4.48072 z"
         id="path1195"
         style="fill:#000000;fill-opacity:1;fill-rule:nonzero;stroke:none;stroke-width:0.242477" />
      <circle
         r="0.27454835"
         cy="216.88393"
         cx="248.27573"
         style="fill:#000000;stroke:#000000;stroke-width:0.916448"
         id="path1197" />
      <path
         inkscape:connector-curvature="0"
         d="m 244.02671,220.86348 c 7.47918,-0.45383 14.9639,-0.43775 22.45071,-0.2379 10.52196,0.46874 20.91367,2.27586 31.18521,4.51477 1.3774,0.31547 2.75858,0.61484 4.13219,0.94641 0.75325,0.18182 5.91394,1.5239 6.84591,1.73875 3.29913,0.76055 6.63551,1.27552 9.97979,1.78548 3.21583,0.52366 6.46721,0.75503 9.71448,0.97567 0,0 8.14641,-5.85819 8.14641,-5.85819 v 0 c -3.32997,-0.10116 -6.65759,-0.27878 -9.96666,-0.68493 -7.17815,-0.94035 -14.20309,-2.61125 -21.26507,-4.1792 -10.44258,-2.10915 -20.97648,-3.86336 -31.635,-4.38728 -7.018,-0.29116 -14.03914,-0.46838 -21.05402,-0.81386 0,0 -8.53395,6.20028 -8.53395,6.20028 z"
         id="path1209"
         style="fill:#000000;fill-opacity:1;fill-rule:nonzero;stroke:none;stroke-width:0.242477" />
      <path
         inkscape:connector-curvature="0"
         d="m 298.68121,89.960728 c -2.85973,0.358566 -5.73382,0.548619 -8.60425,0.797065 -4.60642,0.439187 -9.22495,0.712724 -13.82683,1.203309 -4.55974,0.568132 -9.05855,1.493713 -13.49924,2.660311 -2.36788,0.681326 -4.71793,1.482556 -6.95113,2.530528 -0.95474,0.531223 -1.98864,0.826133 -3.06006,0.995699 0,0 -8.94355,6.68764 -8.94355,6.68764 v 0 c 1.14601,-0.13783 2.28688,-0.26383 3.35202,-0.74622 2.23086,-1.24734 4.65056,-2.13011 7.07659,-2.91689 4.44601,-1.272473 8.94783,-2.350584 13.54753,-2.90515 4.53764,-0.538062 9.09594,-0.767654 13.65122,-1.103464 2.73056,-0.25219 5.47786,-0.265183 8.19954,-0.621686 0,0 9.05816,-6.581142 9.05816,-6.581142 z"
         id="path1013"
         style="fill:#38d39f;fill-opacity:0.94117647;fill-rule:nonzero;stroke:none;stroke-width:0.264583" />
      <path
         inkscape:connector-curvature="0"
         d="m 247.12037,104.35249 c -0.85719,2.52999 -1.69751,5.0734 -2.65355,7.56905 -1.29758,3.3187 -2.49323,6.67415 -3.58606,10.06561 -0.95698,3.47587 -1.73875,7.00435 -2.31044,10.56387 0,0 9.53451,-4.65638 9.53451,-4.65638 v 0 c 0.64132,-3.53246 1.43447,-7.03492 2.48482,-10.47078 1.14114,-3.37897 2.39665,-6.71655 3.66802,-10.0485 1.00106,-2.62097 1.94207,-5.26614 2.98296,-7.8709 0,0 -10.12026,4.84803 -10.12026,4.84803 z"
         id="path1015"
         style="fill:#38d39f;fill-opacity:0.94117647;fill-rule:nonzero;stroke:none;stroke-width:0.264583" />
      <path
         inkscape:connector-curvature="0"
         d="m 242.24832,134.3311 c 4.11061,-0.33894 8.16763,0.25616 12.20544,0.95615 6.28917,1.32428 12.24309,3.73863 17.66904,7.18406 1.25655,0.79791 2.4533,1.68632 3.67994,2.52948 0,0 8.36825,-5.32977 8.36825,-5.32977 v 0 c -1.22332,-0.87666 -2.41152,-1.80452 -3.66996,-2.62998 -5.38487,-3.53215 -11.27331,-6.21127 -17.55804,-7.66204 -3.82733,-0.91779 -7.70963,-1.59103 -11.6596,-1.61226 0,0 -9.03507,6.56436 -9.03507,6.56436 z"
         id="path1017"
         style="fill:#38d39f;fill-opacity:0.94117647;fill-rule:nonzero;stroke:none;stroke-width:0.264583" />
      <path
         inkscape:connector-curvature="0"
         d="m 271.92912,144.30469 c -0.84221,3.6791 -1.03248,7.4783 -1.31342,11.23605 -0.15933,2.06728 -0.3382,4.12596 -0.3108,6.20067 0.006,0.47582 -0.0348,0.95778 0.0452,1.42685 0.18087,1.05974 0.49476,1.39666 1.0288,2.26553 1.68396,1.61941 3.87073,2.15381 6.05557,2.74661 3.52739,0.95705 1.23953,0.36346 5.24466,1.36292 3.11451,0.8339 6.25562,1.55756 9.40133,2.26151 0,0 8.51109,-5.91522 8.51109,-5.91522 v 0 c -3.13728,-0.63274 -6.27332,-1.28279 -9.33322,-2.23681 -3.49619,-1.04017 -7.29349,-1.75167 -10.37264,-3.77862 -0.17217,-0.24302 -0.3841,-0.46229 -0.51651,-0.72907 -1.06342,-2.14244 -0.26315,-6.0116 -0.32946,-8.31483 0.3,-3.74718 0.49828,-7.68747 2.10414,-11.14707 0,0 -10.21477,4.62148 -10.21477,4.62148 z"
         id="path1024"
         style="fill:#38d39f;fill-opacity:0.94117647;fill-rule:nonzero;stroke:none;stroke-width:0.264583" />
      <path
         inkscape:connector-curvature="0"
         d="m 301.26672,164.54892 c 0.24515,-1.8372 0.32382,-3.69007 0.45319,-5.53868 0.0658,-1.53589 0.0778,-3.03592 0.35636,-4.54931 0.0452,-0.85437 0.5729,-1.48812 0.94058,-2.2031 0.85698,-1.66643 -0.3604,0.29612 0.62201,-1.22128 1.0241,-1.37947 1.73511,-2.95301 2.66365,-4.40016 1.24933,-2.10614 2.1941,-4.2704 2.66169,-6.67609 0.44977,-1.6554 -0.0357,-3.14277 -0.50452,-4.7209 0,0 -9.61769,5.24111 -9.61769,5.24111 v 0 c 0.38809,1.43188 0.65597,2.77908 0.23531,4.2484 -0.57282,2.27656 -1.55911,4.36286 -2.83103,6.33844 -0.92638,1.49638 -1.7874,3.03194 -2.76235,4.49761 -0.60776,1.21006 -1.27387,2.38319 -1.37544,3.76958 -0.22976,1.5363 -0.21662,3.0836 -0.25426,4.63417 -0.0729,1.82335 -0.19482,3.66775 -0.70777,5.42824 0,0 10.12027,-4.84803 10.12027,-4.84803 z"
         id="path1030"
         style="fill:#38d39f;fill-opacity:0.94117647;fill-rule:nonzero;stroke:none;stroke-width:0.264583" />
      <path
         inkscape:connector-curvature="0"
         d="m 314.4925,134.59607 c 1.67514,-1.38539 3.35425,-2.74488 4.67658,-4.4797 1.35716,-2.11651 1.7826,-4.57238 2.33945,-6.97679 0.4174,-1.55973 0.21269,-0.78325 0.61432,-2.3294 0,0 -9.89178,4.73145 -9.89178,4.73145 v 0 c -0.39034,1.54482 -0.19135,0.76167 -0.59718,2.34942 -0.53434,2.3067 -1.04965,4.65283 -2.58841,6.53235 -1.47635,1.64626 -3.23673,2.97843 -4.87988,4.45021 0,0 10.3269,-4.27754 10.3269,-4.27754 z"
         id="path1034"
         style="fill:#38d39f;fill-opacity:0.94117647;fill-rule:nonzero;stroke:none;stroke-width:0.264583" />
      <path
         inkscape:connector-curvature="0"
         d="m 320.8482,120.98323 c -3.35199,-1.84738 -6.18265,-4.59061 -8.98361,-7.17109 -2.33571,-2.34038 -4.83805,-4.52495 -6.97956,-7.05363 -1.26298,-1.49131 -1.60533,-2.0914 -2.70897,-3.71861 -2.13174,-3.338558 -3.14742,-7.092884 -3.65945,-10.974814 0,0 -9.35175,4.927187 -9.35175,4.927187 v 0 c 0.5739,4.011377 1.6424,7.964647 3.87939,11.398897 0.44579,0.6792 0.85619,1.38298 1.33735,2.0376 2.44248,3.323 5.61566,6.03467 8.53658,8.91206 2.82138,2.6347 5.61988,5.31238 8.56397,7.80493 0,0 9.36605,-6.16253 9.36605,-6.16253 z"
         id="path1038"
         style="fill:#38d39f;fill-opacity:0.94117647;fill-rule:nonzero;stroke:none;stroke-width:0.264583" />
    </g>
  </g>
</svg>
